<svg width="126" height="69" viewBox="0 0 126 69" fill="none" xmlns="http://www.w3.org/2000/svg">
<path d="M120.43 66.5466C120.43 65.7534 120.914 65.0923 121.84 64.6957L122.589 64.3872V67.1195C122.589 67.2518 122.589 67.428 122.633 67.5162C122.104 67.7365 121.84 67.8247 121.576 67.8247C120.826 67.7806 120.43 67.2518 120.43 66.5466ZM122.545 63.5939V63.8583L120.121 64.916C118.975 65.4008 118.402 66.0178 118.402 66.8992C118.402 68.001 119.196 68.7061 120.253 68.7061C120.782 68.7061 121.135 68.6179 122.721 67.9128C122.898 68.4857 123.338 68.7061 124.043 68.7061C124.44 68.7061 124.793 68.5739 125.013 68.4417C124.793 68.2654 124.616 67.9569 124.616 67.428V63.9024C124.616 62.3159 123.779 61.4785 122.325 61.4785C121.531 61.4785 120.87 61.6989 119.46 62.3159V62.8447C120.165 62.5362 120.694 62.3159 121.267 62.3159C122.104 62.2718 122.545 62.7125 122.545 63.5939ZM116.243 57.9529L114.789 59.3631L116.243 60.8175L117.653 59.3631L116.243 57.9529ZM115.318 64.0346V67.2518C115.318 68.2213 115.67 68.7502 116.551 68.7502C117.036 68.7502 117.477 68.5739 117.697 68.3095C117.477 68.1332 117.301 67.9569 117.301 66.9873V61.4785L114.965 62.4481C115.229 62.9328 115.318 63.1973 115.318 64.0346ZM109.28 67.384V62.7566C109.897 62.4921 110.117 62.4481 110.382 62.4481C111.131 62.4481 111.792 63.2413 111.792 65.0482C111.792 66.8992 111.175 68.2654 110.161 68.2654C109.676 68.1772 109.28 67.9128 109.28 67.384ZM107.297 60.8175V68.7061L109.015 68.2213C109.5 68.5298 109.809 68.7061 110.514 68.7061C111.836 68.7061 113.995 67.7365 113.995 64.4312C113.995 62.404 112.938 61.4345 111.836 61.4345C111.263 61.4345 110.955 61.5226 109.368 62.2277V58.2173L107.032 59.1869C107.209 59.7598 107.297 60.0242 107.297 60.8175ZM101.479 66.5466C101.479 65.7534 101.964 65.0923 102.89 64.6957L103.639 64.3872V67.1195C103.639 67.2518 103.639 67.428 103.683 67.5162C103.154 67.7365 102.89 67.8247 102.625 67.8247C101.876 67.7806 101.479 67.2518 101.479 66.5466ZM103.639 63.5939V63.8583L101.215 64.916C100.069 65.4008 99.4962 66.0178 99.4962 66.8992C99.4962 68.001 100.289 68.7061 101.347 68.7061C101.876 68.7061 102.229 68.6179 103.815 67.9128C103.991 68.4857 104.432 68.7061 105.137 68.7061C105.534 68.7061 105.886 68.5739 106.107 68.4417C105.886 68.2654 105.71 67.9569 105.71 67.428V63.9024C105.71 62.3159 104.873 61.4785 103.418 61.4785C102.625 61.4785 101.964 61.6989 100.554 62.3159V62.8447C101.259 62.5362 101.788 62.3159 102.361 62.3159C103.198 62.2718 103.639 62.7125 103.639 63.5939ZM94.6044 68.5739H97.3808C97.0723 68.045 97.0282 67.7806 97.0282 66.9873V64.255C97.5571 63.4617 98.3063 63.1532 99.6284 63.1532V61.4785C98.0859 61.4785 97.513 62.3159 97.0282 63.682V61.4785L94.6925 62.4481C94.9569 62.9769 95.0451 63.2413 95.0451 64.0346V66.9873C94.9569 67.7806 94.8688 68.045 94.6044 68.5739ZM86.9361 64.9601C86.9361 64.916 86.9802 64.872 86.9802 64.8279L88.5667 61.3463L89.8888 64.9601H86.9361ZM84.6444 68.5739H86.8039C86.4954 67.8687 86.4073 66.6348 86.7157 65.4449H90.021L90.638 67.1195C90.9465 67.9128 90.8584 68.2213 90.594 68.5739H93.8552C93.5467 68.3095 93.2382 67.8687 92.9738 67.1195L89.9329 59.0987L87.9938 59.9361C88.126 60.7293 87.9057 61.6548 87.0242 63.5498L84.6444 68.5739ZM75.6981 65.0482C75.6981 62.6244 76.4473 61.8752 77.1965 61.8752C77.9457 61.8752 78.6949 62.6244 78.6949 65.0482C78.6949 67.5162 77.9457 68.2213 77.1965 68.2213C76.4033 68.2213 75.6981 67.5162 75.6981 65.0482ZM77.1524 68.7061C79.0034 68.7061 80.7662 67.5162 80.7662 65.0482C80.7662 62.5803 79.0034 61.4345 77.1524 61.4345C75.3015 61.4345 73.5387 62.6244 73.5387 65.0482C73.5827 67.5162 75.3456 68.7061 77.1524 68.7061ZM69.0875 62.6684V66.4585C69.0875 67.8247 69.7486 68.7061 71.0707 68.7061C71.7758 68.7061 72.3047 68.5298 73.2742 68.0891V67.6925C72.9217 67.8247 72.6573 67.9128 72.3488 67.9128C71.4674 67.9128 71.1148 67.3399 71.1148 66.5466V62.1396H73.0098L73.142 61.6107H71.1148V60.1123L68.7791 61.0819C68.9994 61.6107 69.0875 61.8752 69.0875 62.6684Z" fill="#BE008D"/>
<path d="M96.4554 53.5459C96.4554 55.6172 97.8216 57.0275 99.8929 57.0275C101.568 57.0275 102.758 56.1461 103.198 54.6036L102.978 54.5595C102.669 55.2647 101.876 55.6613 100.818 55.6613C99.8489 55.6613 99.1878 55.2647 98.8352 54.4714L100.201 53.8985C102.229 53.0611 102.934 52.4442 102.934 51.6068C102.934 50.505 101.876 49.7559 100.29 49.7559C98.042 49.7118 96.4554 51.2983 96.4554 53.5459ZM99.5404 53.6341L98.659 53.9866C98.5708 53.6341 98.5268 53.2374 98.5268 52.7526C98.5268 51.1661 99.1437 50.1966 100.069 50.1966C100.774 50.1966 101.127 50.7254 101.127 51.5627C101.127 52.5323 100.642 53.1493 99.5404 53.6341ZM93.1942 51.6509V55.485C93.1942 56.4546 93.5468 56.9834 94.4282 56.9834C94.913 56.9834 95.3537 56.8071 95.574 56.5427C95.3537 56.3664 95.1774 56.1901 95.1774 55.2206V51.6068C95.1774 50.7254 94.7367 49.7118 93.2824 49.7118C92.7535 49.7118 92.4009 49.7999 90.6822 50.505C90.3737 50.1084 89.8449 49.7118 88.9194 49.7118C88.3905 49.7118 88.038 49.7999 86.4514 50.461V49.7118L84.1157 50.6813C84.3801 51.2102 84.4683 51.4746 84.4683 52.2679V55.2206C84.4683 56.0139 84.3801 56.2783 84.1157 56.8071H86.8921C86.5836 56.2783 86.5396 56.0139 86.5396 55.2206V50.9458C87.2888 50.6373 87.5091 50.5491 87.9058 50.5491C88.5227 50.5491 88.8753 50.9017 88.8753 51.6509V55.2647C88.8753 56.0579 88.7872 56.3224 88.5227 56.8512H91.2992C90.9907 56.3224 90.9466 56.0579 90.9466 55.2647V50.9898C91.6958 50.6813 91.9162 50.5932 92.3128 50.5932C92.8417 50.5491 93.1942 50.9458 93.1942 51.6509ZM78.078 53.3256C78.078 50.9017 78.8272 50.1525 79.5764 50.1525C80.3256 50.1525 81.0748 50.9017 81.0748 53.3256C81.0748 55.7935 80.3256 56.4986 79.5764 56.4986C78.8272 56.5427 78.078 55.7935 78.078 53.3256ZM79.5764 56.9834C81.4274 56.9834 83.1902 55.7935 83.1902 53.3256C83.1902 50.8576 81.4274 49.7118 79.5764 49.7118C77.7255 49.7118 75.9627 50.9017 75.9627 53.3256C75.9627 55.7935 77.7695 56.9834 79.5764 56.9834ZM72.2607 56.9834C73.8473 56.9834 74.949 56.1461 75.3457 54.5595L75.1253 54.5155C74.8168 55.2206 74.1117 55.6172 73.1862 55.6172C71.7759 55.6172 70.9827 54.6036 70.9827 52.6645C70.9827 51.122 71.7759 50.1525 72.9659 50.1525C73.7151 50.1525 74.288 50.5932 74.6846 51.5187H74.8609V50.0203C74.0676 49.7999 73.4947 49.6677 72.8777 49.6677C70.4538 49.6677 68.8673 51.122 68.8673 53.3696C68.9114 55.5732 70.2335 56.9834 72.2607 56.9834ZM65.5179 49.0948V55.485C65.5179 56.4546 65.8705 56.9834 66.7519 56.9834C67.2367 56.9834 67.6774 56.8071 67.8977 56.5427C67.6774 56.3664 67.5011 56.1901 67.5011 55.2206V46.4946L65.1654 47.4642C65.4298 48.0371 65.5179 48.3015 65.5179 49.0948ZM57.6734 53.5459C57.6734 55.6172 59.0396 57.0275 61.1109 57.0275C62.7856 57.0275 63.9755 56.1461 64.4162 54.6036L64.1958 54.5595C63.8873 55.2647 63.0941 55.6613 62.0364 55.6613C61.0668 55.6613 60.4058 55.2647 60.0532 54.4714L61.4194 53.8985C63.4466 53.0611 64.1518 52.4442 64.1518 51.6068C64.1518 50.505 63.0941 49.7559 61.5075 49.7559C59.2599 49.7118 57.6734 51.2983 57.6734 53.5459ZM60.7583 53.6341L59.8769 53.9866C59.7888 53.6341 59.7447 53.2374 59.7447 52.7526C59.7447 51.1661 60.3617 50.1966 61.2872 50.1966C61.9923 50.1966 62.3449 50.7254 62.3449 51.5627C62.3449 52.5323 61.8601 53.1493 60.7583 53.6341ZM45.9506 48.9185L48.683 56.8071H49.8288L51.7239 50.9898L53.663 56.8071H54.8088L58.1141 47.2879H56.175C56.7479 47.993 56.836 49.227 56.2191 51.0339L55.0292 54.4714L52.6934 47.1557L50.7102 47.993C51.2832 49.5796 51.195 50.9017 50.7543 52.1797L50.0051 54.4714L48.1101 48.6541C47.9338 48.0371 47.9779 47.6405 48.3304 47.332H44.937C45.3777 47.5523 45.6421 48.0812 45.9506 48.9185Z" fill="#BE008D"/>
<path d="M69.3079 27.3682C69.3079 27.5004 69.2639 27.6767 69.2639 27.8089C69.2639 27.9411 69.2198 28.1174 69.2198 28.2496C69.1757 28.8666 69.1317 29.4835 68.9113 30.1005C68.7791 30.409 68.735 30.6735 68.6909 30.9379C68.6469 31.2023 68.5587 31.5108 68.4265 31.8634C68.4265 31.8634 68.4265 31.9074 68.3825 31.9956C68.3384 32.0837 68.3384 32.26 68.2943 32.4363C68.2943 32.4803 68.2943 32.5244 68.2502 32.5244C68.2502 32.5685 68.2502 32.5685 68.2502 32.6126C68.2062 32.7007 68.2062 32.7888 68.1621 32.877C68.0299 33.3177 67.8536 33.8465 67.6333 34.4635C67.3248 35.389 66.9722 36.2263 66.5315 36.9755C67.3248 36.8433 67.9418 36.5348 68.735 35.8297C69.1317 35.2568 69.5283 34.6839 69.9249 34.0228C69.7046 33.7143 69.3079 28.3377 69.3079 27.3682Z" fill="#78006E"/>
<path d="M63.8431 17.4963C63.3583 17.1878 62.8294 16.9234 62.3006 16.7471C59.9649 16.703 57.7173 19.5235 56.3511 21.2423C57.4088 21.4186 58.5546 22.1678 59.0834 22.8288C59.3919 23.1814 59.6123 23.578 59.9208 23.9306C60.0971 24.1069 60.1411 24.3272 60.2293 24.5476C60.4496 25.0764 60.2293 25.6053 60.3615 26.1341C60.4056 26.3104 60.4056 26.4867 60.4056 26.707C60.4496 26.8833 60.4937 27.2799 60.4937 27.4122L60.6259 27.324C62.0802 26.3545 63.5346 25.2086 64.9007 24.1509C64.9007 24.1069 64.9007 24.1069 64.9007 24.0628C65.033 23.2695 65.1211 22.4322 65.2533 21.6389C65.3855 20.8897 65.2974 20.1405 65.1211 19.4795C64.9889 18.6862 64.5482 17.9811 63.8431 17.4963Z" fill="#78006E"/>
<path d="M101.347 19.0387L101.127 18.9065C100.951 18.7743 100.422 18.6421 100.025 18.554C98.8793 18.7743 96.9402 21.727 96.6758 22.6084C97.3809 22.9169 98.042 23.4017 98.4386 23.9306C98.5267 24.0628 98.659 24.195 98.7471 24.3272C98.9234 24.5916 99.0997 24.812 99.2759 25.0323C99.4522 25.2527 99.5404 25.429 99.6285 25.6493V25.6934C99.7607 26.0019 99.7607 26.3544 99.7166 26.6629C99.7166 26.8833 99.7166 27.1036 99.7607 27.2799C99.8048 27.4562 99.8048 27.5884 99.8048 27.7647C99.8929 27.8528 99.937 27.941 99.9811 28.0732C99.9811 28.1613 99.9811 28.2935 99.937 28.3817C99.9811 28.558 100.069 28.9987 100.201 29.7038C100.245 29.9682 100.29 30.2326 100.378 30.4971C101.7 26.9714 102.846 23.4899 103.154 20.2286C102.978 20.0524 102.802 19.8761 102.581 19.7439C102.229 19.4354 101.744 19.1709 101.347 19.0387Z" fill="#78006E"/>
<path d="M115.229 29.3953C115.141 29.6597 115.097 29.9241 115.053 30.1885C115.009 30.4089 114.833 31.2462 114.833 31.2462C114.789 31.4666 114.701 31.6429 114.656 31.8632C114.524 32.348 114.392 32.8328 114.304 33.3616C114.26 33.582 114.216 33.8023 114.172 33.9786C114.128 34.1549 113.951 35.3007 113.643 35.4329C113.951 35.3889 115.317 35.0804 115.802 34.5074C115.846 34.4193 116.023 34.0227 116.155 33.6701C116.155 33.626 116.199 33.5379 116.199 33.5379L116.243 33.4498C116.023 32.8328 115.45 30.6733 115.229 29.3953Z" fill="#78006E"/>
<path d="M80.3257 23.6221C80.2375 25.0323 80.1053 26.4426 79.929 27.0155C79.7968 27.4121 79.7527 27.7647 79.6646 28.0291C79.6205 28.3817 79.5324 28.6902 79.4002 29.175C79.4002 29.219 79.4002 29.2631 79.4002 29.3072C79.4002 29.7479 79.4443 30.9378 78.9154 32.4802C78.651 33.8905 78.0781 35.2126 77.2407 35.9177C77.6374 36.05 78.3866 36.0059 79.312 35.1245C79.5324 34.7278 79.7087 34.3753 79.8409 34.199C80.1494 33.7583 80.3257 33.5379 80.9867 32.2599L81.0308 32.1277C80.6782 28.7783 80.4138 25.6493 80.3257 23.6221Z" fill="#78006E"/>
<path d="M37.2246 16.7471C34.0074 15.5572 31.0547 15.1165 27.7935 14.5876C23.2542 16.659 18.715 18.7303 15.2334 20.7575C16.864 20.6694 20.2134 20.7134 21.844 20.6253C22.505 20.7134 23.2102 20.8016 23.9153 20.8016C24.5763 21.0219 25.0171 20.9338 25.59 20.8897C27.1324 20.9779 28.4986 21.4626 30.1292 21.5067C30.7462 21.4626 31.2751 21.9033 31.848 22.0356C32.1124 21.9474 32.8175 22.2559 33.082 22.2559C33.4345 22.1678 33.743 22.5644 34.1397 22.5644C34.7566 22.6966 35.2855 22.8729 35.8584 23.1814C36.3872 23.3577 36.9602 23.3577 37.4009 23.7543C38.8993 24.7679 40.3977 25.9578 41.2791 27.6325C41.7638 28.6461 42.1164 29.4394 42.1164 30.3649C43.7911 28.8224 44.7606 27.5884 45.5098 26.3985C45.8624 24.812 45.9065 23.3136 45.5539 22.4322C43.7029 19.8761 40.1332 18.1133 37.2246 16.7471Z" fill="#78006E"/>
<path d="M77.2408 35.9619C77.1967 35.9619 77.1967 35.9619 77.1967 35.9619C77.0205 35.8737 76.8442 35.7856 76.6679 35.6534C76.6679 35.6534 76.6238 35.6093 76.5797 35.6093C76.0068 35.2127 75.6543 32.7447 75.6102 32.6125C75.5661 32.4803 75.5661 32.304 75.5221 32.1718C75.3458 31.4226 75.1254 30.453 74.861 29.4835C74.8169 29.3954 74.8169 29.3072 74.7729 29.2191C74.7288 29.0869 74.6847 28.9546 74.6847 28.8665C74.7288 27.9851 74.6406 27.1037 74.5084 26.2663C74.4644 25.8256 74.4203 25.3849 74.3762 24.9442C74.3321 24.6357 74.3322 24.812 74.3322 24.6357C74.2881 24.2832 74.2881 24.0628 74.2881 23.4458C74.2881 23.0051 74.2881 22.5644 74.2881 22.0796C74.2881 21.8593 74.2881 21.6389 74.2881 21.4627V21.2864C74.2881 21.2864 73.01 21.8593 72.7456 21.9915C72.6575 22.0356 72.5693 22.0796 72.4812 22.1237C71.9964 22.3441 71.9083 22.3881 71.7761 22.5204C71.6879 22.6085 71.5998 22.6966 71.2913 22.8729C71.2913 22.8729 69.881 23.7543 69.22 24.3272V24.3713V24.4154C69.22 24.4595 69.22 24.4595 69.22 24.5035C69.22 24.5476 69.22 24.5917 69.22 24.6357C69.22 24.812 69.22 25.0324 69.264 25.2968C69.264 25.429 69.264 25.6053 69.3081 25.7816C69.3081 26.0019 69.3522 26.2223 69.3522 26.4867C69.3963 26.7511 69.3963 26.6189 69.4403 26.8833C69.4403 27.0596 69.4844 27.1918 69.4844 27.3681C69.4844 27.3681 69.4844 27.4122 69.4844 27.5003C69.4844 28.4699 69.881 33.8465 70.1014 34.155H70.1895C70.2336 34.6397 70.4099 35.0364 70.5862 35.3889C70.6743 35.5212 70.7624 35.6974 70.8065 35.8296C71.0709 36.2704 71.2913 36.7111 71.3794 37.2399C71.3794 37.328 71.4235 37.4162 71.4235 37.5043C71.5998 37.7687 71.6879 38.0332 71.9523 38.2535C72.0846 38.3857 72.1727 38.4739 72.3049 38.562C72.5693 38.6942 72.8778 38.7383 73.1863 38.7824C73.5389 38.8264 73.8474 38.8705 74.1559 38.9146C74.244 38.9146 74.3762 38.8705 74.4644 38.8264C74.5084 38.8264 74.5966 38.7824 74.6406 38.7824C75.9628 38.4298 77.7256 37.7247 78.607 36.5788L79.0036 36.05C79.0036 36.0059 79.0477 36.0059 79.0477 35.9619C79.1358 35.8296 79.3562 35.433 79.4443 35.2567C78.3866 36.05 77.6374 36.05 77.2408 35.9619Z" fill="#BE008D"/>
<path d="M66.5315 36.9754C66.4874 36.9754 66.1348 37.0195 66.1348 37.0195C65.8704 37.0195 65.7382 36.9314 65.7382 36.9314C65.3856 36.6229 65.0771 35.7414 64.989 35.1245C64.9449 34.7719 64.7246 33.1854 64.7246 33.1413C64.6805 32.9209 64.6805 32.5243 64.6364 31.9955C64.6805 31.4666 64.7246 31.0259 64.7246 30.6293C64.7686 30.0564 64.7686 29.8801 64.9008 29.219C64.9449 28.9546 64.989 28.1173 64.989 27.4121V26.9714H64.9008L64.7686 27.0155C64.7686 27.0155 64.5483 27.1477 64.5042 27.1918C64.4161 27.2358 64.2839 27.324 64.1957 27.3681C63.7991 27.5884 63.3584 27.8528 62.9617 28.1173C62.3888 28.5139 61.86 28.9105 61.3752 29.3072C61.1989 29.4394 61.0667 29.5716 60.8904 29.7038C60.3616 30.1445 59.8327 30.5852 59.392 31.114C59.2157 31.2903 58.775 31.7751 58.775 31.7751C56.9241 33.4939 55.646 34.5956 53.9714 35.0804C53.6629 35.1685 53.4866 35.2567 53.4425 35.3889C53.3984 35.3889 53.3103 35.3889 53.1781 35.3889C53.134 35.3889 53.134 35.3889 53.0899 35.3889C52.9577 35.3889 52.7814 35.3889 52.6933 35.433C52.6052 35.433 52.473 35.477 52.3848 35.477C52.2526 35.477 52.1645 35.433 52.0763 35.3889C51.8119 35.1685 51.6356 34.9041 51.5475 34.6838L51.5034 34.5956C51.2831 34.0227 51.0627 33.4498 51.0186 32.8769C50.9305 31.687 51.0627 30.5852 51.3712 29.6157C51.7678 28.4257 52.2085 27.1477 52.9137 26.0019C53.5747 24.812 54.368 23.7543 55.2494 22.6084C55.4698 22.344 55.6901 22.0796 55.9105 21.8592C55.9986 21.727 56.1308 21.5507 56.2189 21.4185L56.263 21.3304C57.6292 19.6116 59.8768 16.7911 62.2125 16.8352C61.86 16.7471 61.4633 16.6589 61.1108 16.6148C60.9345 16.6148 60.2294 16.5267 60.009 16.5267H59.9649C59.5683 16.4826 59.1717 16.4386 58.8632 16.6589C57.497 16.9674 56.3512 17.8048 55.3816 18.554C54.0154 19.6116 52.5611 20.7575 51.239 22.0355C49.388 23.8424 48.154 25.5612 47.4048 27.4562C47.3608 27.5884 47.2726 27.7647 47.1845 27.8969C47.1404 27.985 47.0963 28.0732 47.0523 28.2054C46.9641 28.4257 46.8319 28.6461 46.7438 28.8664C46.3912 29.5716 46.0387 30.3649 45.8183 31.1581C45.7742 31.3785 45.7302 31.5988 45.6861 31.8192C45.642 31.9955 45.642 32.1717 45.598 32.348C45.4657 32.965 45.2895 33.582 45.1573 34.1549C45.025 34.5956 45.1573 34.9923 45.4657 35.2567C45.598 35.3889 45.6861 35.477 45.6861 35.6974C45.8624 36.7991 46.3031 37.5924 47.1404 38.3416C47.1845 38.3857 47.2286 38.4298 47.2726 38.4298C47.3167 38.4298 47.3608 38.4738 47.3608 38.5179C47.5371 38.8705 47.8456 39.0027 48.2422 39.0027C48.3744 39.0027 48.5066 39.0027 48.727 38.9586L48.8592 38.9145C49.0355 38.7382 49.0795 38.4738 48.9914 38.1653C49.0795 38.1653 48.9032 37.989 48.9473 37.989C49.2117 37.989 49.7406 38.1653 49.9609 38.1653H50.005C50.1813 38.2094 50.4016 38.2094 50.5779 38.2094C50.9305 38.2094 51.1949 38.1213 51.4593 37.945C51.4593 37.945 51.5034 37.945 51.6356 37.945H51.7238C51.7678 37.945 51.8119 37.945 51.8119 37.945C52.517 37.9009 53.2222 37.5483 53.8391 37.2398C54.2358 37.0636 54.6324 36.8432 54.985 36.7551C55.1613 36.711 55.2935 36.6229 55.4257 36.5347C55.4697 36.4907 55.5138 36.4466 55.602 36.4466C55.9105 36.2703 56.1749 36.0059 56.4393 35.7415C56.7037 35.477 57.0122 35.1685 57.3207 35.0363C57.6292 34.86 57.9818 34.6397 58.3784 34.3312C58.4665 34.2431 58.5547 34.1549 58.6428 34.0668C58.731 34.0227 58.775 33.9346 58.8632 33.8905C59.1276 33.7583 59.392 33.6701 59.7005 33.6261V33.6701C59.8327 34.3753 60.1412 35.8296 60.1412 35.8296C60.1853 36.0499 60.2294 36.2703 60.2294 36.4466L60.2734 36.6229C60.3175 36.8432 60.3616 37.1076 60.6701 37.328C60.9345 37.5483 61.1548 37.9009 61.3311 38.3857C61.4633 38.8264 61.9481 39.2671 62.6092 39.2671C62.9177 39.3552 63.2702 39.3993 63.6228 39.3993C63.9754 39.3993 64.372 39.3552 64.8127 39.2671C65.0331 39.223 66.5315 38.8264 67.501 37.5483C67.6332 37.4161 67.7654 37.2839 67.8536 37.1076C68.118 36.6669 68.3824 36.3144 68.6468 35.9618C67.9858 36.5347 67.3247 36.8432 66.5315 36.9754Z" fill="#BE008D"/>
<path d="M32.0243 1.32236L32.0684 1.27829L32.465 0.000244141C30.0852 0.881654 21.7559 3.83438 18.715 4.848L18.6269 4.89207L18.3184 6.21419L18.6269 6.12604C21.7999 5.06835 29.6886 2.24784 32.0243 1.32236Z" fill="#BE008D"/>
<path d="M113.511 17.1436C114.128 17.6284 115.185 18.4216 115.758 18.9505C116.243 19.3912 115.714 18.9064 116.287 19.2149C116.419 19.303 116.552 19.3912 116.64 19.5234C117.08 20.0082 117.301 20.3167 117.741 19.876C117.918 19.6997 117.962 19.0827 117.874 18.8623C117.389 17.8487 117.786 17.8487 118.667 18.1131C119.24 18.2894 119.24 17.7606 119.284 17.0114C119.284 16.9232 119.24 16.5266 119.284 16.4825C119.592 16.2622 120.253 15.9537 120.077 15.7333C119.945 15.513 120.033 15.4689 119.901 15.2045C119.725 15.0723 118.887 14.6316 118.887 14.3231C118.843 14.1027 118.711 13.8824 118.579 13.7061C118.094 13.2213 116.992 12.5162 116.419 12.1636C116.331 12.0755 116.199 12.0314 116.111 11.8992C116.023 11.767 115.802 11.6788 115.758 11.5466C115.318 11.6788 115.274 11.8551 114.965 12.1195C114.216 12.8687 113.687 13.8383 112.982 14.6316C112.761 14.896 112.585 15.2045 112.321 15.4689C112.189 15.6011 112.145 15.7774 112.056 15.9096C112.056 16.0859 111.792 16.2622 111.836 16.4385C112.233 16.5266 112.806 16.7029 113.114 16.9232C113.246 16.9673 113.378 17.0554 113.511 17.1436Z" fill="#BE008D"/>
<path d="M112.717 34.9922C112.629 34.9041 112.585 34.7278 112.541 34.5956C112.541 34.5515 112.497 34.4634 112.497 34.4193C112.453 34.1989 112.365 34.0227 112.321 33.8023C112.144 33.3175 111.968 33.1412 111.88 32.6565C111.704 31.9954 111.616 31.2903 111.483 30.5852C111.439 30.2326 111.351 29.9241 111.307 29.5715L111.219 29.219C110.999 27.985 110.734 26.751 110.646 25.473V25.3848C110.646 25.2086 110.602 25.0323 110.514 24.856C110.426 24.6356 110.382 24.4153 110.338 24.1509V24.1068C110.294 23.8864 110.249 23.622 110.249 23.4017C110.205 23.005 110.117 22.6084 110.117 22.2118C110.073 21.8151 109.941 20.8015 109.809 19.9201C109.721 19.3472 109.632 18.8624 109.632 18.6861C109.632 18.642 109.632 18.598 109.632 18.5539C109.632 18.2895 109.588 18.0251 109.5 17.8488C109.412 17.6725 109.368 17.364 109.324 16.8792C109.28 16.5267 109.28 16.13 109.28 15.7775C109.236 15.2045 109.236 14.5876 109.148 14.0146C109.104 13.5299 109.192 9.12281 109.236 7.62442C109.28 6.56672 109.324 5.64124 109.324 5.33275C109.324 5.06833 109.28 4.75983 109.236 4.49541C109.192 4.3632 109.236 3.79028 109.236 3.79028L108.883 3.92249C108.487 3.96656 107.914 4.3632 107.385 4.71576C107.12 4.89205 106.856 5.1124 106.724 5.15647C106.459 5.28868 106.063 5.5531 105.666 5.81753C105.137 6.17009 104.52 6.56673 104.256 6.65487C104.124 6.69894 103.727 6.96336 103.727 6.96336C103.727 6.96336 104.08 7.18371 104.256 7.35999C104.388 7.49221 104.52 7.66849 104.52 7.8007C104.476 8.2414 104.432 9.03467 104.432 9.91608C104.476 10.3568 104.432 12.5162 104.476 13.0892C104.388 13.618 104.3 15.2486 104.124 16.0419C103.815 17.5844 103.463 19.3031 103.374 20.0523C103.374 20.0964 103.374 20.1404 103.33 20.1845C103.022 23.4457 101.876 26.9273 100.554 30.4529C100.554 30.497 100.51 30.5411 100.51 30.5852C100.466 30.6733 100.422 30.8055 100.378 30.8937C100.334 31.0259 100.245 31.1581 100.201 31.3344C100.157 31.4225 100.113 31.5106 100.069 31.5547C100.025 31.6428 99.981 31.7751 99.8929 31.8632C99.8488 31.9073 99.8488 31.9954 99.8047 32.0395L99.7166 32.2158C98.6589 34.2871 97.6012 35.477 96.9402 36.094L96.852 36.1821C96.6317 36.3584 96.4113 36.4465 96.235 36.4465C95.7502 36.4465 95.3095 35.8736 95.0451 35.5211C95.001 35.4329 94.9129 35.3888 94.8688 35.3007C94.6485 35.0803 94.4722 34.8159 94.34 34.4634C93.9874 33.5379 93.8552 32.5683 93.8993 31.5547C93.9874 29.836 94.3841 28.1172 95.0011 26.4425C95.2655 25.7374 95.618 24.8119 96.0587 23.9305C96.1028 23.8864 96.1028 23.7983 96.1469 23.7542L96.1909 23.622C96.1909 23.5779 96.235 23.5779 96.235 23.5339C96.235 23.4898 96.2791 23.4457 96.2791 23.4017C96.3232 23.3576 96.3232 23.3135 96.3672 23.2254C96.4113 23.1813 96.4113 23.1372 96.4554 23.0932C96.4994 23.005 96.5435 22.9169 96.6317 22.8287L96.7198 22.6965C96.7639 22.6084 96.8079 22.5203 96.852 22.4762L96.8961 22.4321C97.1605 21.5948 99.0996 18.598 100.245 18.3776C100.245 18.3776 100.069 18.3336 99.981 18.3336C99.8929 18.3336 99.8047 18.3336 99.8047 18.3336C99.32 18.3336 98.9233 18.4217 98.5708 18.598C98.2623 18.7302 97.7775 18.8183 97.2927 18.9505C96.6317 19.0827 95.9265 19.215 95.4858 19.5235C94.9129 19.9201 94.34 20.2727 93.7671 20.5811L93.5026 20.7134C92.7534 21.1541 92.0924 21.8151 91.6076 22.6084C91.211 23.2694 90.8143 24.0187 90.9025 24.9441C90.9466 25.2086 90.8584 25.517 90.7703 25.7815C90.6381 26.2222 90.5059 26.6629 90.3736 27.1036C90.2414 27.5884 90.0652 28.0731 89.9329 28.5579C89.8889 28.7783 89.8448 29.0427 89.8007 29.263C89.8007 29.3512 89.7567 29.4834 89.7567 29.5715V29.6597L89.8007 29.7037C90.0211 30.0122 89.9329 30.3648 89.8007 30.7614C89.7567 30.8496 89.7567 30.9818 89.7126 31.0699V31.114C89.6685 31.3344 89.6244 31.5988 89.7567 31.8191C89.4041 32.1717 89.5804 32.5683 89.7126 32.7887L89.7567 32.9209C89.8448 33.1412 89.8448 33.3616 89.8889 33.5819C89.9329 33.8464 89.9329 34.1108 90.0211 34.3752C90.1533 34.6837 90.7262 35.0803 90.8584 35.1685C90.9025 35.2126 90.9906 35.2566 91.0788 35.3448C91.0347 35.3888 90.8584 35.6533 90.7703 35.6533C90.6821 35.6973 90.2855 35.9177 90.1092 35.9618C89.7567 36.0058 89.4041 35.9618 89.0956 35.8295C89.0515 35.8295 89.0075 35.7855 88.9634 35.7414C88.9193 35.7414 88.9193 35.6973 88.8752 35.6973C88.8312 35.6533 88.7871 35.6533 88.743 35.6092C88.699 35.6092 88.699 35.5651 88.6549 35.5651C88.6108 35.521 88.5668 35.477 88.5227 35.4329C88.5227 35.3888 88.4786 35.3888 88.4786 35.3448C88.4345 35.2566 88.3464 35.2126 88.3023 35.1244C88.2583 35.0803 88.2142 35.0363 88.1261 34.9922C87.8616 34.7278 87.6413 34.4193 87.5091 34.1108C87.465 33.9786 87.465 33.8904 87.465 33.7582C87.2887 33.4938 87.2006 33.2294 87.1124 32.9209C87.0243 32.4361 86.8921 31.9954 86.7599 31.5547C86.5836 30.9818 86.4514 30.4529 86.3632 29.836C86.3192 29.4834 86.2751 29.1749 86.231 28.8664C86.1869 28.4257 86.1429 28.0291 86.0547 27.5002C86.0107 27.3239 86.0107 27.1917 85.9666 27.0595C85.9225 26.8832 85.8784 26.6629 85.8344 26.3103C85.7903 25.9578 85.7462 25.6933 85.7022 25.3408C85.6581 25.0323 85.614 24.7238 85.5259 24.1949C85.5259 24.1509 85.4818 23.8424 85.4377 23.622L85.3937 23.4017C85.3496 23.2254 85.3496 23.0932 85.3055 22.9169C85.2174 22.5203 85.1733 22.0795 85.1733 21.6829C85.1733 21.5066 85.1733 21.3303 85.1733 21.11C85.1733 20.493 85.1733 19.8319 85.1293 19.3472L85.0852 18.7743C85.0852 18.7743 83.8071 19.3912 83.4986 19.6116C83.4105 19.6557 83.3664 19.6997 83.2783 19.7438C82.5291 20.1845 82.2206 20.3608 81.4714 20.6693L81.207 20.8015C80.6781 21.0659 80.3696 21.1981 80.2815 21.2863L80.1934 21.3303V21.4185C80.1934 21.4185 80.1934 21.4626 80.1934 21.5066C80.1934 21.5507 80.1934 21.5507 80.1934 21.5948C80.1934 21.6829 80.2374 21.7711 80.2374 21.8592L80.2815 22.1677C80.2815 22.2558 80.3256 22.344 80.3256 22.4321C80.3256 22.4762 80.3256 22.5203 80.3256 22.6084C80.3256 22.6965 80.3696 23.3135 80.3696 23.4898C80.4578 25.473 80.7222 28.6461 81.0748 31.9954C81.0748 32.0395 81.0748 32.0836 81.0748 32.1276C81.2511 33.4497 81.2511 33.4938 81.2951 33.5379C81.3833 33.6701 81.4714 33.8023 81.5595 33.9345C81.6036 33.9786 81.6036 34.0227 81.6477 34.0667C81.868 34.4634 82.1325 34.9481 82.7054 35.1244C82.7054 35.1244 82.7935 35.1685 82.8376 35.2566C83.1461 35.7855 83.4546 36.3584 83.6749 36.8432C83.9834 37.4161 84.4241 37.9009 84.997 38.3416C85.1293 38.4297 85.2615 38.4738 85.3937 38.4738H85.4377C85.5259 38.4738 85.614 38.4738 85.7022 38.4738C85.7903 38.4738 85.8344 38.4738 85.9225 38.4738C85.9666 38.4738 86.0107 38.4738 86.0107 38.4738C86.0547 38.4738 86.1429 38.5178 86.1869 38.5619C86.2751 38.6501 86.4073 38.6941 86.5836 38.6941C86.6277 38.6941 86.6717 38.6941 86.6717 38.6941C86.848 38.6941 86.9802 38.6941 87.1565 38.7382C87.3328 38.7382 87.5091 38.7823 87.6853 38.7823C87.9057 38.7823 88.082 38.7823 88.2583 38.7382C88.9634 38.606 89.5363 38.2975 89.9329 37.9009C90.1974 37.6364 90.5059 37.4161 90.8144 37.1957C90.8584 37.1517 90.9025 37.1517 90.9466 37.1076C91.0788 37.0194 91.211 36.9313 91.2991 36.8432C91.3873 36.755 91.5195 36.711 91.6517 36.6228C91.7839 36.5347 91.872 36.4906 92.0043 36.4025C92.0924 36.3143 92.1365 36.2262 92.2246 36.138C92.489 36.3143 92.6653 36.4906 92.7094 36.6228C92.8416 37.0635 93.106 37.2398 93.4145 37.4161C93.723 37.5924 94.1196 37.7246 94.4722 37.8568C94.6044 37.9009 95.2214 37.9009 95.3095 37.9009C95.8384 37.9009 96.0147 37.8568 96.1028 37.8127H96.1909C96.8079 37.7246 97.5131 37.4161 97.6012 37.372C98.8793 36.8432 99.8929 35.7855 100.598 35.1244C100.818 34.9041 100.995 34.7278 101.127 34.5956C101.215 34.5074 101.347 34.4193 101.435 34.2871C102.273 33.3175 103.154 32.2158 103.859 30.9818C103.903 30.8936 103.947 30.8496 103.991 30.7614C104.168 30.4529 104.388 30.0563 104.432 29.6597C104.697 29.5715 104.785 29.3953 104.785 29.263C104.785 29.1308 104.829 28.9545 104.829 28.8223C104.829 28.6901 104.873 28.5579 104.873 28.3816C104.917 28.2935 105.225 27.6324 105.534 26.9273L105.578 26.9714C105.578 27.0154 105.578 27.1036 105.578 27.1477C105.534 27.368 105.622 27.5443 105.666 27.7206C105.71 27.8087 105.71 27.8969 105.754 27.985C105.798 28.1613 106.459 29.3512 106.503 29.4834C106.548 29.7478 106.592 30.0122 106.724 30.2767C106.768 30.3207 106.812 30.4089 106.812 30.4529C106.856 30.5411 106.9 30.6292 106.9 30.7614C106.944 30.9818 107.032 31.2462 107.209 31.4225C107.12 31.5988 107.165 31.731 107.209 31.8191V31.8632C107.385 32.5243 107.561 33.0972 107.737 33.6701C107.781 33.8023 107.826 33.9345 107.87 34.0667C107.958 34.3752 108.046 34.6837 108.09 34.9922C108.134 35.5651 108.31 36.0499 108.487 36.5347C108.663 36.5787 108.751 36.711 108.751 36.9754C108.751 37.0195 108.751 37.0195 108.751 37.0635C109.015 37.372 109.324 37.7246 109.677 37.989C109.721 38.0331 109.765 38.0771 109.809 38.0771C109.985 38.1212 110.205 38.1653 110.382 38.2094C110.514 38.2534 110.602 38.2534 110.734 38.2975C111.087 38.2975 111.439 38.2094 111.836 38.2094L112.1 38.1212V38.0771C112.233 38.0331 112.453 37.9009 112.894 37.7246C112.938 37.6805 113.026 37.6805 113.026 37.6805C113.29 37.4602 113.555 37.2839 113.819 37.1517C114.304 36.8432 115.185 35.3888 115.318 35.3007C115.406 35.2126 115.626 34.9922 115.626 34.9041C115.626 34.7278 115.714 34.5956 115.802 34.5074L115.846 34.4634C115.362 35.0803 113.995 35.3888 113.687 35.3888C113.29 35.477 112.806 35.1244 112.717 34.9922Z" fill="#BE008D"/>
<path d="M124.925 38.2977C124.881 38.2536 124.837 38.2095 124.749 38.1655C124.705 38.1655 124.661 38.1655 124.573 38.1214C123.911 38.1655 123.074 37.7688 122.766 37.4163C122.457 37.0637 121.179 32.3482 120.959 31.6871C120.871 31.4227 120.738 30.5413 120.65 30.365C120.518 30.1446 120.43 29.9243 120.386 29.6599C120.386 29.4836 120.033 27.7648 120.033 27.5004C120.033 27.28 119.989 27.1038 119.989 26.8834C119.945 26.3986 119.637 24.151 119.593 23.6663C119.548 23.4018 119.504 23.0933 119.504 22.7849C119.504 22.7849 119.504 22.7408 119.504 22.6967C119.548 22.2119 119.548 22.0357 119.46 21.9475L119.416 21.8594H119.328C119.196 21.8594 118.931 21.9916 118.226 22.3442C118.006 22.4764 117.698 22.6086 117.609 22.6526C116.992 22.8289 116.199 23.1374 115.714 23.3578C115.45 23.49 114.26 23.9748 114.26 23.9748C114.436 24.151 115.053 24.5917 115.053 24.5917C115.23 25.0325 115.185 29.2191 115.185 29.3073C115.406 30.5853 116.023 32.7448 116.155 33.2736C116.199 33.3618 116.199 33.4058 116.199 33.4058C116.199 33.4058 116.419 34.3313 116.508 34.8161C116.596 34.9042 116.64 34.9924 116.684 35.0365C116.86 35.3449 116.948 36.4908 117.036 36.8434C117.213 37.4163 117.477 37.9451 117.565 38.5621C118.314 39.4876 119.108 40.369 120.342 40.5453C120.606 40.5893 120.871 40.5893 121.135 40.5893C121.223 40.5453 121.311 40.5453 121.399 40.5012C122.105 40.2809 122.722 40.0164 123.339 39.7079C123.691 39.5317 124 39.3554 124.264 39.135C124.308 39.0909 124.396 39.0469 124.44 38.9587C124.749 38.8706 124.881 38.6502 124.925 38.2977C124.925 38.3417 124.925 38.3417 124.925 38.2977Z" fill="#BE008D"/>
<path d="M87.421 34.2429L87.377 33.8904C87.377 33.9785 87.377 34.1107 87.421 34.2429Z" fill="#BE008D"/>
<path d="M91.9603 43.5418L91.6519 44.6876L91.9603 44.5995C94.6927 43.7181 101.391 41.2942 103.375 40.5009L103.419 40.4569L103.727 39.311C101.7 40.0602 94.6486 42.5723 92.0044 43.4537L91.9603 43.5418Z" fill="#BE008D"/>
<path d="M80.7663 14.8079C80.6341 14.7638 80.2374 14.6316 80.0612 14.5876H79.973L80.0171 14.4994C80.1052 14.235 80.1493 13.9265 80.1493 13.618C80.1493 11.4145 79.1798 10.6653 78.3865 10.6653C77.7254 10.6653 77.0203 10.9738 76.4915 11.5026C75.8745 12.0755 75.566 12.7807 75.566 13.5299C75.566 14.6757 76.3592 15.3368 78.078 15.6452L78.2543 15.6893L78.1221 15.7775C76.9762 16.6589 73.8913 17.8928 71.9522 18.6861L71.4233 18.9065L71.9522 19.0387C72.3929 19.1268 73.1862 19.215 73.5828 19.215H73.6269H73.6709C74.4642 18.9505 78.0339 17.5403 79.312 15.9537L79.356 15.9097H79.4001C79.4882 15.9537 79.8408 16.086 79.973 16.13L80.1052 16.1741L81.0307 14.8961L80.7663 14.8079ZM79.2238 14.4113L79.1798 14.4994H79.0916C77.2407 14.1469 76.227 13.4858 76.227 12.7366C76.227 12.2518 76.9322 11.723 77.5932 11.723C78.3424 11.723 79.2238 12.6925 79.2238 14.0146C79.312 14.1469 79.2679 14.2791 79.2238 14.4113Z" fill="#BE008D"/>
<path d="M11.0909 21.2422C11.6638 21.11 12.2808 21.0218 12.8537 20.9778C13.1181 20.9337 13.3825 20.9337 13.6469 20.9337C13.7792 20.9337 14.7046 20.7133 15.2335 20.8015C18.7151 18.7302 23.2543 16.6588 27.7936 14.6316C29.5564 13.8824 30.9667 13.4858 33.1702 12.5603C33.9635 12.4721 37.6213 10.2686 37.7976 11.3704C38.1061 11.8111 38.6349 12.2077 38.6349 12.2077C39.7808 10.2686 40.0893 9.43128 40.6622 7.66846C41.3232 5.59715 42.2487 4.71574 42.5572 2.42407C41.9843 2.46814 41.1029 3.04106 40.7062 3.26141C39.7367 3.70212 38.6349 4.18689 37.5772 4.71574C35.0211 5.77343 32.3769 6.17006 29.8208 7.05147C28.9394 7.22776 28.675 7.53625 27.8817 7.66846C27.6614 7.93289 27.0444 8.0651 26.6918 8.0651C25.9426 8.32952 25.3697 8.5058 24.6205 8.94651C24.0476 8.85837 23.4747 9.56349 22.7255 9.43128C21.8441 9.87199 19.2439 11.15 17.9659 11.2382C17.3489 11.2822 15.4098 11.8992 14.5724 12.0314C14.2639 12.1637 14.3961 12.4281 14.1758 12.6484C13.5588 15.1164 12.457 16.6148 11.4875 19.0387C11.3994 19.9641 10.6061 20.9778 11.0909 21.2422Z" fill="#BE008D"/>
<path d="M45.2896 27.1918C45.3337 26.9715 45.4218 26.7511 45.4659 26.5308C45.4659 26.4867 45.4659 26.4867 45.4659 26.4426C44.7167 27.5885 43.7471 28.8224 42.0724 30.3649V30.409C41.8962 30.5853 41.7199 30.7615 41.5436 30.9378C39.8248 32.7888 37.9298 34.2431 35.9026 35.6974C34.9771 36.667 33.9194 37.3721 32.6854 37.945C30.2175 39.3994 27.5292 40.3248 24.8849 41.3825C24.1798 41.691 23.6069 41.4707 23.2543 42.2639C23.2103 42.2199 23.1662 42.1758 23.1221 42.1758C21.9322 42.308 20.2575 42.5724 19.288 43.3216C20.566 44.8641 23.034 42.0877 24.3561 43.4098C23.8713 43.9827 23.1221 44.0708 22.5051 44.4675C22.1085 44.3353 21.7559 44.5997 21.4034 44.6878C20.7864 44.8641 19.7287 45.0404 19.1117 45.2167C16.9522 45.3048 14.8369 45.7896 12.6774 45.6574C2.98189 45.0404 -0.191184 37.4603 3.24632 28.9546C3.68702 28.0292 4.21587 27.1918 4.78878 26.3104C4.39215 25.7375 3.02596 27.897 2.62933 28.4699C-0.543749 34.2872 -1.73365 41.8673 4.21587 46.4066C4.39215 46.4947 4.65657 46.5829 4.78878 46.671C4.96507 46.5388 5.09728 46.4506 5.14135 46.4066C5.31763 46.2744 5.31763 46.3184 6.1109 46.7151C9.32805 48.2575 13.4266 48.3897 17.0404 47.8168C17.3048 47.8168 17.5252 47.7728 17.7896 47.7728C18.1421 47.905 18.4947 47.7287 18.8032 47.6406C18.9354 47.5965 19.1117 47.5965 19.288 47.5524H19.3321C20.3457 47.3321 21.3593 47.1998 21.9763 46.2744C22.3288 46.3625 22.6373 46.5388 22.9458 46.2744C24.3561 45.9659 25.6782 45.437 27.0003 44.82C27.3529 44.776 27.441 45.0845 27.8377 45.0404C35.1093 41.9995 41.8962 36.7992 44.4963 29.0428V28.9987C44.6285 28.6902 44.7607 28.3817 44.8489 28.0732V28.0292C44.8489 27.9851 44.8489 27.941 44.893 27.941C45.1133 27.6766 45.2014 27.4563 45.2896 27.1918C45.2455 27.2359 45.2455 27.1918 45.2896 27.1918Z" fill="#BE008D"/>
</svg>
