<?xml version="1.0" encoding="UTF-8"?>
<svg id="Layer_1" xmlns="http://www.w3.org/2000/svg" xmlns:xlink="http://www.w3.org/1999/xlink" version="1.1" viewBox="0 0 270 120">
  <!-- Generator: Adobe Illustrator 29.1.0, SVG Export Plug-In . SVG Version: 2.1.0 Build 142)  -->
  <defs>
    <style>
      .st0 {
        fill: none;
      }

      .st1 {
        fill: #f72a1e;
      }

      .st2 {
        clip-path: url(#clippath-1);
      }

      .st3 {
        clip-path: url(#clippath);
      }
    </style>
    <clipPath id="clippath">
      <rect class="st0" width="270" height="120"/>
    </clipPath>
    <clipPath id="clippath-1">
      <rect class="st0" width="270" height="120"/>
    </clipPath>
  </defs>
  <g class="st3">
    <g class="st2">
      <g>
        <path class="st1" d="M109.6,81.3v1.7h16.6v-30.5c0,0,2.9,1.8,4.2,2.7,3.1,2,6.1,4,9.1,6,2.8,1.9,5.7,3.7,8.5,5.6,2.8,1.9,5.6,3.7,8.4,5.6,2.8,1.8,5.6,3.7,8.3,5.6,2.3,1.6,7.6,5.1,7.6,5.1v-1.5s0-67.9,0-67.9h-15.6s-1.5,0-1.5,0c0,0,0,13.6,0,19.8,0,3.5,0,11.7,0,11.7,0,0-5-3.4-6.9-4.7-2.6-1.8-5.3-3.6-7.9-5.3-3-2-5.9-4-8.9-6-3.1-2-6.1-4.2-9.1-6.2-4-2.7-12.8-8.7-12.8-8.7v67h0Z"/>
        <path class="st1" d="M246.9,15.1c-11.3-6.7-24.6-8.9-37.5-7.1-2.3.3-3.8.7-4.4.8,0,0-.2,0-.3,0-2.2.4-4.3,1-6.4,1.8-3.8,1.4-7.2,3.4-10.2,6-.2.2-.4.4-.6.5-5.2,4.8-9,10.5-10.9,17.5-.9,3.4-1.2,6.9-1.4,10.4-.1,2.8.3,5.6.8,8.4.4,2,.9,4.1,1.6,6,1.2,3.5,2.9,6.7,5.2,9.6,1.8,2.3,3.8,4.5,6.1,6.4,2.2,1.8,4.6,3.2,7.2,4.4,3.1,1.5,6.3,2.4,9.6,2.8.2,0,.3,0,.5,0,4.5.5,9,.3,13.4-1,2.9-.8,5.8-1.8,8.4-3.4,3.1-1.8,5.8-4.1,8.2-6.8,3-3.4,5.2-7.4,6.6-11.9,1-3.1,1.5-6.4,1.6-9.6,0-2.8-.3-10.5-.3-10.5h-17c0,.1-18.4.3-18.4.3v9.9s0,2.4,0,2.4h18s.2,5.9-.6,8.3c-.2.6-.5,1.1-.8,1.5,0,.1,0,.2-.2.3-1.9,3.4-5.7,6.1-13.6,5.1-.1,0-.3,0-.4,0-.9,0-1.6-.2-2.1-.3-.5-.1-1.4-.2-1.9-.4-12.3-3.8-15.9-18.3-12.3-29.5,0-.2.1-.4.2-.6,0-.3.2-.5.3-.8,0-.2.2-.4.2-.6.2-.5.4-1,.6-1.4,0,0,0-.1,0-.2,0-.1.2-.3.2-.4.1-.2.2-.5.4-.7,0-.1.1-.2.2-.3.2-.2.3-.5.5-.7,0-.1.2-.2.2-.3.1-.2.2-.4.4-.5,0-.1.1-.2.2-.3.1-.2.2-.3.4-.5.1-.1.2-.3.3-.4,0,0,0,0,0,0,.1-.2.2-.3.4-.4,1-1.2,2.2-2.4,3.4-3.4,9.4-8.1,21.2-8.5,27-7.5,15,2.7,22.2,11.2,25.8,22.6,2.6,8.3,2.4,17.5-1,25.4-7.5,17.1-26.6,30.1-64.3,33.2-13.7,1.1-29.8.9-48.8-.9-71-6.7-83.2-26.3-83.2-26.3h-.2c1.4-.3,2.7-.7,4.1-1.3,1-.4,2-.8,3-1.3,2-.9,3.7-2.1,5.4-3.4,2.6-2.1,4.9-4.6,6.9-7.3,1.6-2.2,2.9-4.6,3.8-7.2.6-1.7,1.1-3.4,1.5-5.2.5-2.5.9-5,1-7.5,0-4.6-.6-9.2-2.3-13.5-1.1-3-2.5-5.8-4.3-8.4-2.4-3.3-5.4-5.9-8.7-8.1-1.9-1.3-3.9-2.4-6-3.4-1.7-.8-3.4-1.5-5.1-2.1-1.6-.5-5-1.5-6.6-1.8-4.3-.6-17.4-1.3-24.4,1.1-2,.7-3.9,1.3-5.8,2.2-2.7,1.3-5.2,2.9-7.6,4.9-2.7,2.2-5.1,4.8-7.1,7.7-1.6,2.3-2.8,4.7-3.8,7.3-.8,2-1.8,6.3-1.8,6.3l-.2,1.2h9.6s1.5-5.2,2.3-6.8c.9-1.7,1.8-3.2,3-4.7,1.8-2.5,4-4.4,6.5-5.9v90.3h1.2c4.9,0,16.1,0,16.1,0v-29.2c0,0,0-2.5,0-2.5h6.2l2.5,3.7c27.2,37.1,129,57.6,185.1,31,0,0,0,0,0,0,16.5-7.8,29.1-19.7,34.6-36.5.8-2.4,1.3-4.9,1.7-7.4,6.1-30.3-14.6-44.6-22-49h0ZM40.9,64.4h-2.3c0-.1,0-53.6,0-53.6.2,0,1.8,0,2.3,0,14.1,0,25.6,12,25.6,26.8s-11.5,26.8-25.6,26.8Z"/>
        <path class="st1" d="M105.5,14.3h-18.8v68.7h18.8V14.3Z"/>
        <path class="st1" d="M91.1,2.1h-1.8v9.1h-2.4V2.1h-2V0h6.2v2.1Z"/>
        <path class="st1" d="M98.5,0v11.3h-2.4v-4.6h-2v4.6h-2.4V0h2.4v4.5h2V0h2.4Z"/>
        <path class="st1" d="M105.2,9.4v1.9h-5.6V0h5.6v1.9h-3.2v2.8h3v1.9h-3v2.8h3.2Z"/>
      </g>
    </g>
  </g>
</svg>