<svg width="80" height="44" viewBox="0 0 80 44" fill="none" xmlns="http://www.w3.org/2000/svg">
<g clip-path="url(#clip0_3662_698)">
<path d="M43.4237 22.1055C42.9762 22.1049 42.5337 22.2001 42.126 22.3848C41.7183 22.5694 41.3549 22.8393 41.0601 23.1761L41.1706 23.3291C41.4661 23.1936 41.7863 23.1203 42.1113 23.1138C43.3237 23.1138 44.0775 24.0985 44.0775 25.6845V29.2752H45.9202V24.6291C45.9131 22.8867 44.6596 22.1055 43.4237 22.1055Z" fill="white"/>
<path d="M40.7934 22.3384H38.9507V29.2752H40.7934V22.3384Z" fill="white"/>
<path d="M51.3082 28.3775C50.2229 28.3775 49.6008 27.5104 49.6008 25.9986V22.3384H47.7593V26.9163C47.7593 28.6693 48.9576 29.454 50.1441 29.454C51.0684 29.454 51.9621 28.9987 52.5947 28.2057L52.4701 28.0634C52.1163 28.2665 51.7161 28.3747 51.3082 28.3775Z" fill="white"/>
<path d="M54.7221 22.3384H52.8794V29.2752H54.7221V22.3384Z" fill="white"/>
<path d="M59.6977 24.9045C58.697 24.5821 57.7527 24.2774 57.7468 23.6162C57.7463 23.495 57.7703 23.3749 57.8174 23.2632L57.8538 23.1797L57.9914 23.1456C58.1113 23.1179 58.2341 23.1044 58.3571 23.1056C58.9615 23.1056 59.8153 23.3915 60.2092 23.9197L60.2657 23.9962L61.7944 22.9138L61.7191 22.8326C61.3017 22.3855 60.6525 22.1267 59.9376 22.1267C59.1144 22.1267 58.3501 22.4479 57.8938 22.9868L57.7962 23.1044L57.7021 23.1315C57.2317 23.2691 56.4251 23.7256 56.4251 24.5621C56.4168 25.7175 57.681 26.1328 58.9039 26.534C59.8247 26.8364 60.6937 27.1222 60.7643 27.7046C60.7868 27.9146 60.7279 28.1252 60.5996 28.2929L60.5279 28.3953L60.3797 28.4294C60.2436 28.4604 60.1043 28.4754 59.9646 28.4741C59.1349 28.4456 58.3498 28.0909 57.7797 27.487L57.7221 27.4223L56.1816 28.5035L56.2593 28.5847C56.5389 28.8624 56.871 29.0815 57.2363 29.2291C57.6015 29.3768 57.9926 29.4501 58.3865 29.4447C59.2238 29.4447 59.9846 29.1329 60.4738 28.5882L60.5738 28.4764L60.7031 28.4423C60.8583 28.4011 62.2224 28.0035 62.1683 26.7411C62.1213 25.6869 60.8901 25.2892 59.6977 24.9045Z" fill="white"/>
<path d="M67.1779 28.3775C66.0937 28.3775 65.4716 27.5104 65.4716 25.9986V22.3384H63.6289V26.9163C63.6289 28.6693 64.8272 29.454 66.0149 29.454C66.9392 29.454 67.8317 28.9987 68.4643 28.2057L68.3409 28.0634C67.9867 28.2666 67.5861 28.3748 67.1779 28.3775Z" fill="white"/>
<path d="M70.5912 22.3384H68.7485V29.2752H70.5912V22.3384Z" fill="white"/>
<path d="M74.2792 18.9935H72.4365V29.2752H74.2792V18.9935Z" fill="white"/>
<path d="M80.0011 29.2752L76.445 25.2338L79.1991 22.3384H77.4857L74.4624 25.7785L77.4657 29.2752H80.0011Z" fill="white"/>
<path d="M57.8785 17.4841V10.5472H56.037V16.2428H40.4159L38.9507 17.2699V17.4841H57.8785Z" fill="white"/>
<path d="M61.1568 14.2074C61.1568 15.7193 60.5347 16.5852 59.4505 16.5852C59.0421 16.5823 58.6415 16.4737 58.2875 16.2699L58.1699 16.4146C58.8026 17.2076 59.6986 17.6617 60.6194 17.6617C61.8071 17.6617 63.0054 16.8781 63.0054 15.1251V10.5472H61.1568V14.2074Z" fill="white"/>
<path d="M63.5323 7.45184C63.4729 7.42719 63.4104 7.41057 63.3465 7.40243L63.2877 7.39419L63.3054 7.33772C63.3382 7.2266 63.3545 7.11123 63.3536 6.99535C63.3536 6.14119 62.9867 5.83765 62.6727 5.83765C62.1612 5.83765 61.5674 6.32473 61.5674 6.953C61.5674 7.40596 61.8625 7.6495 62.554 7.77657L62.6716 7.79657L62.5775 7.86716C62.1189 8.21188 61.3886 8.51307 60.616 8.81662L60.4702 8.87427L60.6231 8.90956C60.8339 8.95187 61.0479 8.97667 61.2628 8.98368H61.2722H61.2804C61.5873 8.86603 62.5222 8.52954 63.0185 7.9001L63.0408 7.87187L63.0737 7.88363C63.1215 7.89858 63.1683 7.91666 63.2137 7.93775L63.2501 7.9554L63.5911 7.48479L63.5323 7.45184ZM63.0549 7.1483C63.0547 7.20593 63.0452 7.26314 63.0267 7.31772L63.0126 7.36007L62.9691 7.35066C62.0577 7.1683 61.866 6.88005 61.866 6.66357C61.866 6.44709 62.14 6.26473 62.4093 6.26473C62.6998 6.26473 63.0385 6.64239 63.0502 7.1483H63.0549Z" fill="white"/>
<path d="M75.3916 10.5457L73.8101 12.1281L75.3916 13.7104L76.9731 12.1281L75.3916 10.5457Z" fill="white"/>
<path d="M77.1235 7.4483C77.0635 7.42407 77.0007 7.40785 76.9365 7.40007L76.8789 7.39065L76.8953 7.33418C76.9291 7.22323 76.9457 7.10778 76.9447 6.99181C76.9447 6.13765 76.5778 5.83411 76.2639 5.83411C75.7523 5.83411 75.1573 6.32119 75.1573 6.94945C75.1573 7.40242 75.4525 7.64714 76.1451 7.77302L76.2627 7.7942L76.1698 7.86362C75.71 8.20834 74.9797 8.50953 74.2071 8.81425L74.0625 8.87073L74.2142 8.90602C74.4254 8.9487 74.6397 8.97389 74.8551 8.98132H74.8633H74.8715C75.1785 8.86955 76.1133 8.52718 76.6107 7.89774L76.6319 7.8695L76.666 7.88127C76.7133 7.89643 76.7597 7.9145 76.8048 7.93539L76.8412 7.95304L77.1823 7.48242L77.1235 7.4483ZM76.646 7.14476C76.6458 7.20239 76.6363 7.2596 76.6178 7.31418L76.6037 7.35653L76.5602 7.3483C75.6477 7.16594 75.456 6.87769 75.456 6.66003C75.456 6.44237 75.7312 6.26119 75.9993 6.26119C76.2956 6.26119 76.6343 6.64003 76.646 7.14476Z" fill="white"/>
<path d="M80.0013 17.4806V10.5391H78.1587V16.2358H67.7034C67.8401 15.8789 67.9076 15.4991 67.9022 15.1169V10.5473H66.0606V14.2075C66.0606 15.7193 65.4386 16.5852 64.3532 16.5852C63.9452 16.5822 63.5449 16.4736 63.1914 16.2699L63.062 16.4158C63.6947 17.2088 64.5907 17.6629 65.5127 17.6629C66.3182 17.6629 67.1284 17.3006 67.5658 16.5205L68.7794 17.4853L80.0013 17.4806Z" fill="white"/>
<path d="M47.9885 11.6944C49.2162 11.6944 50.2393 12.1992 50.7967 13.0804C51.2823 13.8463 51.3552 14.7875 51.0024 15.7276L50.9683 15.8193L51.0753 15.8864L51.1436 15.8441C52.6111 14.9464 52.8992 13.5439 52.7017 12.6157C52.4206 11.3038 51.2682 10.4556 49.7618 10.4556L43.4482 10.4485L46.6338 7.1001H44.9229L41.9219 10.512L42.1441 11.6886L47.9885 11.6944Z" fill="white"/>
<path d="M32.1901 19.0277L33.3284 18.6571C33.3284 18.6571 33.513 16.8123 31.7021 14.7745L33.3343 14.2451V13.078C33.3343 11.272 29.476 9.38486 29.1691 9.22838L33.3343 7.87655C33.3402 7.35064 33.0862 6.84827 32.5946 6.65649L16.1739 1.32446L0.0741472 6.55178C0.0522364 6.55826 0.033087 6.57182 0.0196856 6.59034C0.00628426 6.60885 -0.000616033 6.63129 6.27827e-05 6.65414C0.00864833 6.89709 0.0866483 7.13249 0.224825 7.33245C0.363001 7.53242 0.555565 7.68858 0.779708 7.78243L3.9853 8.82366C6.28017e-05 10.4708 6.27827e-05 12.2003 6.27827e-05 12.2003V14.2416L1.04665 14.5816C0.374489 15.4436 0.0101825 16.506 0.0118228 17.5994C6.35e-05 17.9159 0.869078 18.5912 0.869078 18.5912C-0.0975399 20.5972 0.0118228 22.9891 0.0118228 22.9891C0.0224063 23.182 0.395177 23.5361 0.395177 23.5361C0.161254 25.0831 0.029264 26.6438 6.27827e-05 28.2081C-0.00149949 28.3166 0.0261206 28.4235 0.0800273 28.5176C0.308125 28.9128 0.647616 29.232 1.05605 29.4353L17.2005 34.6755L33.3343 29.4353C33.3343 26.1692 32.8639 24.1985 32.8639 24.1985L33.3272 24.0491C33.3272 24.0491 33.4813 21.3196 32.1901 19.0277ZM32.2089 22.2526C32.1023 22.0235 31.9847 21.8 31.8561 21.5819C31.4328 20.8675 30.9168 20.2124 30.3215 19.6336L31.6221 19.2112C31.9768 20.1877 32.1749 21.2142 32.2089 22.2526ZM4.33926 19.7183L17.2005 23.8926L29.9805 19.743C31.314 20.9195 31.7444 23.1032 31.7444 23.1032L16.1762 28.1623L1.77925 23.4867C2.23669 22.0302 2.97988 20.7995 4.33926 19.7183ZM1.71928 20.2419C1.87101 19.8287 2.05912 19.4299 2.28138 19.05L2.64239 19.1677C2.30097 19.4953 1.99184 19.855 1.71928 20.2419ZM16.6713 19.6536L25.1439 16.9029C25.1439 16.9029 27.711 18.2453 28.5541 18.7477L16.9582 22.5126L16.1715 22.769L5.09892 19.1748C6.27485 18.39 7.56838 17.77 8.81722 17.1064L16.6713 19.6536ZM9.27348 13.978L9.69447 13.7568C10.8142 13.1576 11.8888 12.4773 12.9095 11.7214L13.548 11.9285C12.6152 12.8399 11.5982 13.6609 10.5106 14.3804L10.0273 14.2239L9.27348 13.978ZM25.8636 16.6687L28.5482 15.7969C28.5482 15.7969 30.3121 16.7817 30.9918 17.9535L29.0774 18.5794C28.3718 17.9747 25.8636 16.6687 25.8636 16.6687ZM28.2636 12.6368L25.472 13.5439C23.808 12.785 21.9195 11.5814 21.9195 11.5814L24.4513 10.7579C24.4513 10.7579 27.9391 12.405 28.3095 12.6215L28.2636 12.6368ZM24.7264 13.7863L24.6277 13.818L22.2099 14.6039C21.2096 13.9559 20.2704 13.2179 19.4042 12.3991L21.4232 11.7426C21.4232 11.7426 23.2318 13.0345 24.7264 13.7863ZM21.7137 14.7687L18.7974 15.7099L16.696 16.3911L12.3097 14.964C13.3467 14.2257 14.3075 13.3859 15.1778 12.4568L17.2005 13.1133L19.0702 12.5062C19.8987 13.3199 20.7819 14.0758 21.7137 14.7687ZM14.1301 11.3297L13.6409 11.1708C14.2289 10.7002 14.8074 10.2061 15.3742 9.67782C15.4648 9.59311 15.5553 9.5084 15.6447 9.42251C15.1913 10.096 14.6848 10.7322 14.1301 11.325V11.3297ZM14.2359 8.63541C13.4861 9.33214 12.699 9.98764 11.8782 10.599L10.8422 10.2614C12.0181 9.59899 13.1376 8.83542 14.243 8.07186C14.6013 7.824 14.9587 7.57301 15.3154 7.31888C15.5506 7.15416 15.7764 6.98827 16.0069 6.8212C15.4535 7.45951 14.8621 8.06378 14.2359 8.63071V8.63541ZM8.90071 9.63193L7.19443 9.07779L7.03333 9.02484C7.03333 9.02484 9.2382 8.29893 16.1715 4.61639V4.81758C12.1192 7.94479 8.90071 9.62723 8.90071 9.62723V9.63193ZM9.92142 10.7555L11.1185 11.1438C10.4655 11.594 9.79246 12.0136 9.09944 12.4027C8.51148 12.7321 7.90587 13.038 7.30144 13.3439L6.94866 13.2262L5.68688 12.8168C5.89032 12.6991 6.09376 12.5956 6.29249 12.4921C7.48724 11.8709 8.72315 11.3567 9.92142 10.7508V10.7555ZM6.85223 16.4676C5.87054 16.9594 4.91517 17.5021 3.99001 18.0935L3.85125 18.1865C3.66231 18.3159 3.47887 18.4504 3.30091 18.59L2.71294 18.3982C3.44202 17.4206 4.40982 16.6511 5.44111 16.0087L6.85223 16.4676ZM32.2089 17.5594L31.3858 17.8253C30.6061 16.7264 29.0774 15.6275 29.0774 15.6275L30.4579 15.1793L31.3611 14.8863C32.343 16.2781 32.2124 17.5594 32.2124 17.5594H32.2089ZM31.8361 11.4508L31.8573 11.4697L28.9175 12.4238C27.6381 11.5556 25.5131 10.6037 25.265 10.4943L28.3589 9.48957C30.7484 10.5696 31.6915 11.3261 31.8397 11.4508H31.8361ZM17.2005 2.4504L31.3752 7.05181L27.3652 8.35304C22.3628 6.37883 17.2005 3.48339 17.2005 3.48339V2.4504ZM17.2005 4.11166C17.2005 4.11166 18.0236 4.56109 19.2137 5.18348C21.375 6.32 24.73 8.03303 26.4457 8.65188L23.4576 9.62252C21.8113 8.85778 17.2005 5.53173 17.2005 5.53173V4.11166ZM17.2005 6.00469C17.2005 6.00469 17.732 6.39765 18.4858 6.94592C19.7852 7.88008 21.7466 9.26015 22.7956 9.84253L20.4931 10.5826C19.0161 9.55075 17.2005 7.58007 17.2005 7.58007V6.00469ZM17.2005 8.0295C18.0968 8.99637 19.0659 9.89316 20.0991 10.712L18.3764 11.2708C17.8719 10.7701 17.5026 10.1495 17.3028 9.46722C17.2307 9.21716 17.195 8.95801 17.1969 8.69777L17.2005 8.0295ZM16.6536 10.5967C16.7712 10.4214 16.8888 10.2437 16.99 10.0567C17.084 10.1884 17.1793 10.3202 17.2757 10.4508C17.5156 10.7692 17.7661 11.0806 18.0271 11.385L16.1727 11.9873L15.72 11.8403C16.0553 11.4447 16.3667 11.0295 16.6525 10.5967H16.6536ZM1.99915 7.38711L16.1715 2.78571V2.99513C9.2335 6.70355 4.98015 8.35422 4.98015 8.35422L1.99915 7.38711ZM3.16803 10.9532C4.07715 10.3984 5.02192 9.90438 5.99615 9.47428L7.93057 10.1025C6.61469 10.7285 5.26707 11.3097 4.01941 12.0509C3.9418 12.0968 3.86536 12.1438 3.78422 12.1909L2.15673 11.6626C2.47818 11.4046 2.81599 11.1676 3.16803 10.9532ZM2.61064 15.0887L3.61136 15.4146C2.84876 15.9419 2.1741 16.5863 1.61227 17.3241C1.47222 17.5134 1.34191 17.7097 1.22186 17.9123L1.16894 17.8947C1.33828 16.8064 1.87803 15.8793 2.61064 15.0887ZM32.1995 28.3434L31.581 28.5446L16.1762 33.5472L1.12426 28.6623C1.14189 27.1787 1.23244 25.6574 1.58287 24.2126L17.2005 29.2847L31.9984 24.4809C31.9984 24.4809 32.323 27.2728 32.1995 28.3434Z" fill="white"/>
<path d="M63.872 40.7835C63.632 40.7835 63.419 40.7505 63.233 40.6845C63.047 40.6245 62.882 40.5435 62.738 40.4415C62.594 40.3335 62.471 40.2105 62.369 40.0725C62.273 39.9345 62.192 39.7875 62.126 39.6315L61.847 40.6755H61.154L62.918 34.1055H63.611L62.873 36.8235C63.101 36.5715 63.356 36.3585 63.638 36.1845C63.926 36.0105 64.259 35.9235 64.637 35.9235C64.901 35.9235 65.144 35.9715 65.366 36.0675C65.594 36.1575 65.789 36.2895 65.951 36.4635C66.119 36.6375 66.248 36.8475 66.338 37.0935C66.434 37.3335 66.482 37.6005 66.482 37.8945C66.482 38.3085 66.41 38.6925 66.266 39.0465C66.122 39.3945 65.927 39.6975 65.681 39.9555C65.441 40.2135 65.165 40.4175 64.853 40.5675C64.541 40.7115 64.214 40.7835 63.872 40.7835ZM63.809 40.1715C64.085 40.1715 64.34 40.1115 64.574 39.9915C64.814 39.8715 65.021 39.7125 65.195 39.5145C65.369 39.3105 65.504 39.0765 65.6 38.8125C65.702 38.5425 65.753 38.2575 65.753 37.9575C65.753 37.7415 65.72 37.5465 65.654 37.3725C65.594 37.1985 65.504 37.0485 65.384 36.9225C65.27 36.7965 65.132 36.7005 64.97 36.6345C64.814 36.5685 64.637 36.5355 64.439 36.5355C64.181 36.5355 63.926 36.5985 63.674 36.7245C63.428 36.8445 63.209 37.0065 63.017 37.2105C62.825 37.4085 62.669 37.6395 62.549 37.9035C62.429 38.1675 62.369 38.4405 62.369 38.7225C62.369 38.9265 62.402 39.1185 62.468 39.2985C62.54 39.4725 62.639 39.6255 62.765 39.7575C62.891 39.8835 63.041 39.9855 63.215 40.0635C63.395 40.1355 63.593 40.1715 63.809 40.1715ZM67.5676 38.5875C67.5616 38.6175 67.5586 38.6505 67.5586 38.6865C67.5586 38.7165 67.5586 38.7465 67.5586 38.7765C67.5586 39.2025 67.6846 39.5445 67.9366 39.8025C68.1886 40.0545 68.5306 40.1805 68.9626 40.1805C69.2626 40.1805 69.5236 40.1325 69.7456 40.0365C69.9676 39.9405 70.1836 39.8055 70.3936 39.6315L70.7536 40.0905C70.5256 40.2825 70.2646 40.4475 69.9706 40.5855C69.6826 40.7175 69.3346 40.7835 68.9266 40.7835C68.6206 40.7835 68.3386 40.7355 68.0806 40.6395C67.8286 40.5435 67.6126 40.4085 67.4326 40.2345C67.2526 40.0605 67.1116 39.8535 67.0096 39.6135C66.9136 39.3675 66.8656 39.0975 66.8656 38.8035C66.8656 38.4495 66.9316 38.1015 67.0636 37.7595C67.2016 37.4115 67.3906 37.1025 67.6306 36.8325C67.8766 36.5625 68.1646 36.3435 68.4946 36.1755C68.8246 36.0075 69.1846 35.9235 69.5746 35.9235C69.8686 35.9235 70.1266 35.9715 70.3486 36.0675C70.5766 36.1635 70.7656 36.2925 70.9156 36.4545C71.0656 36.6165 71.1796 36.8055 71.2576 37.0215C71.3356 37.2375 71.3746 37.4655 71.3746 37.7055C71.3746 37.8615 71.3596 38.0145 71.3296 38.1645C71.2996 38.3085 71.2606 38.4495 71.2126 38.5875H67.5676ZM67.6666 38.0655H70.6546C70.6846 37.9755 70.6996 37.8555 70.6996 37.7055C70.6996 37.5435 70.6756 37.3905 70.6276 37.2465C70.5856 37.1025 70.5166 36.9765 70.4206 36.8685C70.3246 36.7605 70.2016 36.6735 70.0516 36.6075C69.9076 36.5415 69.7366 36.5085 69.5386 36.5085C69.3106 36.5085 69.0946 36.5505 68.8906 36.6345C68.6926 36.7125 68.5126 36.8235 68.3506 36.9675C68.1886 37.1055 68.0476 37.2705 67.9276 37.4625C67.8136 37.6485 67.7266 37.8495 67.6666 38.0655ZM73.0514 40.7565C72.7154 40.7565 72.4424 40.6815 72.2324 40.5315C72.0224 40.3755 71.9174 40.1445 71.9174 39.8385C71.9174 39.7545 71.9234 39.6705 71.9354 39.5865C71.9474 39.5025 71.9624 39.4245 71.9804 39.3525L72.7094 36.6345H72.0704L72.2324 36.0225H72.8804L73.2584 34.6185H73.9424L73.5644 36.0225H75.0314L74.8694 36.6345H73.4024L72.6824 39.3165C72.6704 39.3705 72.6614 39.4305 72.6554 39.4965C72.6494 39.5565 72.6464 39.6105 72.6464 39.6585C72.6464 39.8205 72.7034 39.9405 72.8174 40.0185C72.9314 40.0965 73.0874 40.1355 73.2854 40.1355C73.4894 40.1355 73.7144 40.0875 73.9604 39.9915L73.7894 40.6215C73.6694 40.6695 73.5494 40.7025 73.4294 40.7205C73.3154 40.7445 73.1894 40.7565 73.0514 40.7565ZM75.9927 40.7745C75.7947 40.7745 75.6057 40.7445 75.4257 40.6845C75.2517 40.6305 75.0957 40.5495 74.9577 40.4415C74.8257 40.3335 74.7177 40.2015 74.6337 40.0455C74.5557 39.8835 74.5167 39.6975 74.5167 39.4875C74.5167 39.2295 74.5677 38.9955 74.6697 38.7855C74.7717 38.5755 74.9157 38.3985 75.1017 38.2545C75.2877 38.1105 75.5067 37.9995 75.7587 37.9215C76.0107 37.8435 76.2867 37.8045 76.5867 37.8045C76.8987 37.8045 77.1957 37.8315 77.4777 37.8855C77.7597 37.9335 78.0147 37.9905 78.2427 38.0565L78.2697 37.9485C78.2877 37.8825 78.3027 37.8105 78.3147 37.7325C78.3267 37.6545 78.3327 37.5825 78.3327 37.5165C78.3327 37.2105 78.2277 36.9765 78.0177 36.8145C77.8137 36.6525 77.4987 36.5715 77.0727 36.5715C76.8207 36.5715 76.5897 36.5955 76.3797 36.6435C76.1757 36.6855 75.9687 36.7425 75.7587 36.8145L75.6417 36.2385C75.8697 36.1545 76.1067 36.0885 76.3527 36.0405C76.5987 35.9865 76.8747 35.9595 77.1807 35.9595C77.7687 35.9595 78.2187 36.0885 78.5307 36.3465C78.8487 36.5985 79.0077 36.9495 79.0077 37.3995C79.0077 37.5015 78.9987 37.6065 78.9807 37.7145C78.9627 37.8225 78.9387 37.9305 78.9087 38.0385L78.2067 40.6755H77.5317L77.7297 39.9465C77.5137 40.1985 77.2617 40.3995 76.9737 40.5495C76.6917 40.6995 76.3647 40.7745 75.9927 40.7745ZM76.2087 40.2345C76.4067 40.2345 76.6017 40.2015 76.7937 40.1355C76.9857 40.0635 77.1627 39.9675 77.3247 39.8475C77.4927 39.7275 77.6397 39.5835 77.7657 39.4155C77.8917 39.2415 77.9817 39.0525 78.0357 38.8485L78.1257 38.5245C77.9217 38.4645 77.6907 38.4165 77.4327 38.3805C77.1747 38.3385 76.9017 38.3175 76.6137 38.3175C76.4037 38.3175 76.2117 38.3445 76.0377 38.3985C75.8697 38.4525 75.7257 38.5275 75.6057 38.6235C75.4857 38.7195 75.3897 38.8335 75.3177 38.9655C75.2517 39.0975 75.2187 39.2445 75.2187 39.4065C75.2187 39.6585 75.3057 39.8595 75.4797 40.0095C75.6597 40.1595 75.9027 40.2345 76.2087 40.2345Z" fill="white"/>
</g>
<defs>
<clipPath id="clip0_3662_698">
<rect width="80.0012" height="44" fill="white"/>
</clipPath>
</defs>
</svg>
