<svg width="268" height="116" viewBox="0 0 268 116" fill="none" xmlns="http://www.w3.org/2000/svg">
<g clip-path="url(#clip0_4606_26561)">
<path fill-rule="evenodd" clip-rule="evenodd" d="M-2 1.25067C-2 0.559943 -1.44006 0 -0.749334 0H14.6992C15.1454 0 15.5577 0.23763 15.7814 0.623624L27.6922 21.1787C28.1742 22.0106 29.3756 22.0101 29.8569 21.1778L38.904 5.53465C39.3856 4.70194 40.5877 4.70194 41.0693 5.53465L50.1091 21.1652C50.5921 22.0003 51.7987 21.9973 52.2775 21.1598L64.0145 0.629934C64.2372 0.240385 64.6515 0 65.1003 0H80.7226C81.4134 0 81.9733 0.559942 81.9733 1.25067V79.1493C81.9733 79.84 81.4134 80.4 80.7226 80.4H49.4682C49.0188 80.4 48.604 80.1589 48.3815 79.7684L41.0678 66.9322C40.5892 66.0923 39.3794 66.0896 38.8972 66.9274L31.5034 79.7732C31.2802 80.161 30.8669 80.4 30.4195 80.4H-0.749335C-1.44006 80.4 -2 79.84 -2 79.1493V1.25067ZM90.0137 1.25067C90.0137 0.559943 90.5736 0 91.2643 0H158.472C158.687 0 158.899 0.055681 159.087 0.161644L173.351 8.21702C173.744 8.43883 173.987 8.85496 173.987 9.30604V28.7577C173.987 29.2046 173.748 29.6176 173.361 29.841L157.283 39.1167C156.449 39.598 156.449 40.802 157.283 41.2833L173.361 50.559C173.748 50.7824 173.987 51.1954 173.987 51.6423V71.0939C173.987 71.545 173.744 71.9612 173.351 72.183L159.087 80.2383C158.899 80.3443 158.687 80.4 158.472 80.4H91.2643C90.5736 80.4 90.0137 79.84 90.0137 79.1493V1.25067ZM183.277 0C182.586 0 182.026 0.559943 182.026 1.25067V79.1493C182.026 79.84 182.586 80.4 183.277 80.4H214.448C214.894 80.4 215.307 80.1622 215.53 79.7759L222.931 66.9935C223.412 66.1615 224.614 66.1615 225.095 66.9935L232.496 79.7759C232.719 80.1622 233.132 80.4 233.578 80.4H264.749C265.44 80.4 266 79.84 266 79.1493V54.2326C266 53.7859 265.761 53.373 265.374 53.1496L244.827 41.283C243.993 40.8016 243.993 39.5984 244.827 39.117L265.374 27.2504C265.761 27.027 266 26.6141 266 26.1674V1.25067C266 0.559942 265.44 0 264.749 0H233.578C233.132 0 232.719 0.23781 232.496 0.624037L225.095 13.4065C224.614 14.2385 223.412 14.2385 222.931 13.4065L215.53 0.624037C215.307 0.23781 214.894 0 214.448 0H183.277Z" fill="#FF2C79"/>
</g>
<path d="M7.80449 89.7994C9.57944 89.7994 11.0586 90.3722 12.2419 91.518C13.4252 92.6543 14.0168 94.0818 14.0168 95.8004C14.0168 97.519 13.4252 98.9559 12.2419 100.111C11.0586 101.257 9.57944 101.83 7.80449 101.83H2.8459V110H0.0426026V89.7994H7.80449ZM7.80449 99.1812C8.77179 99.1812 9.58414 98.8573 10.2415 98.2093C10.9083 97.5519 11.2417 96.7489 11.2417 95.8004C11.2417 94.8519 10.9083 94.0583 10.2415 93.4197C9.58414 92.7811 8.77179 92.4618 7.80449 92.4618H2.8459V99.1812H7.80449ZM23.1311 95.6595C23.5818 95.6595 24.0138 95.7159 24.4271 95.8286V98.2938C23.9293 98.1341 23.4691 98.0543 23.0465 98.0543C21.9665 98.0543 21.065 98.4253 20.3418 99.1672C19.6281 99.8997 19.2712 100.867 19.2712 102.069V110H16.5806V95.9272H19.2712V97.9698C19.6938 97.2466 20.2385 96.6832 20.9053 96.2793C21.5721 95.8661 22.314 95.6595 23.1311 95.6595ZM39.0915 102.618C39.0915 103.022 39.0727 103.374 39.0352 103.675H27.7234C27.883 104.962 28.3761 105.985 29.2025 106.746C30.0383 107.507 31.1042 107.887 32.4002 107.887C33.3863 107.887 34.2362 107.666 34.95 107.225C35.6637 106.774 36.1098 106.178 36.2882 105.436H38.9507C38.6877 106.901 37.9458 108.075 36.7249 108.958C35.5041 109.84 34.0343 110.282 32.3157 110.282C30.2684 110.282 28.5545 109.577 27.174 108.169C25.7935 106.751 25.1032 104.994 25.1032 102.9C25.1032 101.567 25.4178 100.346 26.047 99.2376C26.6763 98.12 27.5403 97.242 28.639 96.6033C29.7472 95.9553 30.9634 95.6313 32.2875 95.6313C34.194 95.6313 35.8046 96.2934 37.1194 97.6176C38.4341 98.9418 39.0915 100.609 39.0915 102.618ZM27.8079 101.435H36.2037C36.091 100.44 35.6637 99.6273 34.9218 98.9981C34.1893 98.3689 33.2736 98.0543 32.1749 98.0543C31.0667 98.0543 30.1229 98.3548 29.3434 98.9559C28.5639 99.5569 28.0521 100.383 27.8079 101.435ZM54.1786 95.9272L48.2339 110H45.9378L39.9931 95.9272H42.8809L47.0929 106.535L51.2626 95.9272H54.1786ZM57.8271 89.6021C58.3061 89.6021 58.724 89.7806 59.0809 90.1375C59.4377 90.4943 59.6162 90.9122 59.6162 91.3912C59.6162 91.8795 59.4377 92.3021 59.0809 92.659C58.724 93.0065 58.3061 93.1802 57.8271 93.1802C57.3294 93.1802 56.9068 93.0065 56.5593 92.659C56.2118 92.3115 56.0381 91.8889 56.0381 91.3912C56.0381 90.9122 56.2118 90.4943 56.5593 90.1375C56.9162 89.7806 57.3388 89.6021 57.8271 89.6021ZM56.4748 95.9272H59.1654V110H56.4748V95.9272ZM69.3643 95.6313C70.7073 95.6313 71.9328 95.9553 73.041 96.6033C74.1492 97.242 75.0226 98.1247 75.6612 99.2517C76.3092 100.379 76.6332 101.623 76.6332 102.985C76.6332 105.041 75.9288 106.774 74.5201 108.183C73.1208 109.582 71.4022 110.282 69.3643 110.282C68.0214 110.282 66.7911 109.962 65.6735 109.324C64.5654 108.685 63.692 107.807 63.0534 106.69C62.4148 105.572 62.0955 104.337 62.0955 102.985C62.0955 100.909 62.7951 99.1672 64.1944 97.7585C65.5937 96.3404 67.317 95.6313 69.3643 95.6313ZM69.3643 98.167C68.0401 98.167 66.9273 98.6272 66.0257 99.5475C65.1335 100.468 64.6875 101.614 64.6875 102.985C64.6875 104.328 65.1335 105.459 66.0257 106.38C66.9273 107.291 68.0401 107.746 69.3643 107.746C70.6791 107.746 71.7873 107.286 72.6888 106.366C73.5904 105.445 74.0412 104.318 74.0412 102.985C74.0412 101.614 73.5904 100.468 72.6888 99.5475C71.7873 98.6272 70.6791 98.167 69.3643 98.167ZM89.9875 95.9272H92.65V110H89.9875V107.521C89.5368 108.403 88.9216 109.084 88.1422 109.563C87.3721 110.042 86.4799 110.282 85.4656 110.282C83.6625 110.282 82.2304 109.718 81.1691 108.591C80.1079 107.455 79.5773 105.924 79.5773 103.999V95.9272H82.2679V103.675C82.2679 104.905 82.6107 105.891 83.2963 106.633C83.9912 107.375 84.9163 107.746 86.0714 107.746C87.2641 107.746 88.2126 107.375 88.9169 106.633C89.6307 105.891 89.9875 104.905 89.9875 103.675V95.9272ZM101.299 110.282C99.6465 110.282 98.28 109.869 97.2001 109.042C96.1294 108.216 95.5237 107.093 95.3828 105.675H97.9326C98.0171 106.37 98.3552 106.929 98.9468 107.352C99.5479 107.774 100.294 107.986 101.187 107.986C102.06 107.986 102.76 107.802 103.286 107.436C103.812 107.061 104.074 106.577 104.074 105.985C104.074 105.516 103.92 105.131 103.61 104.83C103.3 104.53 102.901 104.309 102.412 104.168C101.924 104.018 101.379 103.886 100.778 103.774C100.186 103.661 99.5901 103.529 98.9891 103.379C98.3974 103.219 97.8574 103.013 97.3691 102.759C96.8807 102.506 96.4816 102.13 96.1717 101.632C95.8618 101.125 95.7068 100.51 95.7068 99.787C95.7068 98.5755 96.1811 97.58 97.1296 96.8006C98.0781 96.0211 99.3272 95.6313 100.877 95.6313C102.332 95.6313 103.581 96.0117 104.624 96.7724C105.666 97.5237 106.272 98.5567 106.441 99.8715H103.75C103.666 99.2986 103.351 98.8244 102.807 98.4487C102.271 98.0731 101.605 97.8853 100.806 97.8853C100.064 97.8853 99.4587 98.0402 98.9891 98.3501C98.5289 98.66 98.2988 99.0733 98.2988 99.5898C98.2988 100.041 98.4538 100.407 98.7637 100.689C99.0736 100.961 99.4727 101.163 99.9611 101.294C100.449 101.426 100.989 101.543 101.581 101.646C102.182 101.75 102.778 101.886 103.37 102.055C103.971 102.215 104.516 102.431 105.004 102.703C105.493 102.975 105.892 103.384 106.202 103.929C106.512 104.473 106.666 105.14 106.666 105.929C106.666 107.178 106.155 108.216 105.131 109.042C104.107 109.869 102.83 110.282 101.299 110.282ZM112.273 89.7994V110H109.582V89.7994H112.273ZM125.782 95.9272H128.642L120.598 115.142H117.739L120.218 109.507L114.541 95.9272H117.387L121.57 106.422L125.782 95.9272ZM150.11 89.7994H154.407V110H150.11V101.604H141.517V110H137.249V89.7994H141.517V97.5049H150.11V89.7994ZM167.832 95.8286H171.903V110H167.832V107.986C166.799 109.516 165.296 110.282 163.324 110.282C162.122 110.282 161.014 109.953 160 109.296C158.995 108.629 158.201 107.732 157.619 106.605C157.037 105.469 156.745 104.234 156.745 102.9C156.745 101.567 157.037 100.336 157.619 99.2094C158.201 98.0731 158.995 97.1809 160 96.5329C161.014 95.8755 162.122 95.5468 163.324 95.5468C165.296 95.5468 166.799 96.3169 167.832 97.8571V95.8286ZM164.282 106.394C165.277 106.394 166.118 106.06 166.803 105.394C167.489 104.717 167.832 103.886 167.832 102.9C167.832 101.924 167.489 101.097 166.803 100.421C166.118 99.7447 165.277 99.4066 164.282 99.4066C163.305 99.4066 162.469 99.7494 161.774 100.435C161.08 101.111 160.732 101.933 160.732 102.9C160.732 103.877 161.075 104.703 161.76 105.379C162.455 106.056 163.296 106.394 164.282 106.394ZM178.806 89.7994V110H174.734V89.7994H178.806ZM192.033 95.8286H196.104V110H192.033V107.986C191 109.516 189.498 110.282 187.525 110.282C186.323 110.282 185.215 109.953 184.201 109.296C183.196 108.629 182.402 107.732 181.82 106.605C181.238 105.469 180.947 104.234 180.947 102.9C180.947 101.567 181.238 100.336 181.82 99.2094C182.402 98.0731 183.196 97.1809 184.201 96.5329C185.215 95.8755 186.323 95.5468 187.525 95.5468C189.498 95.5468 191 96.3169 192.033 97.8571V95.8286ZM188.483 106.394C189.479 106.394 190.319 106.06 191.005 105.394C191.69 104.717 192.033 103.886 192.033 102.9C192.033 101.924 191.69 101.097 191.005 100.421C190.319 99.7447 189.479 99.4066 188.483 99.4066C187.507 99.4066 186.671 99.7494 185.976 100.435C185.281 101.111 184.933 101.933 184.933 102.9C184.933 103.877 185.276 104.703 185.962 105.379C186.657 106.056 187.497 106.394 188.483 106.394ZM203.613 89.7994H208.839L213.318 97.1386L217.784 89.7994H222.771L215.417 101.463V110H211.121V101.463L203.613 89.7994ZM230.744 95.8286H234.815V110H230.744V107.986C229.711 109.516 228.208 110.282 226.236 110.282C225.034 110.282 223.926 109.953 222.912 109.296C221.907 108.629 221.113 107.732 220.531 106.605C219.949 105.469 219.658 104.234 219.658 102.9C219.658 101.567 219.949 100.336 220.531 99.2094C221.113 98.0731 221.907 97.1809 222.912 96.5329C223.926 95.8755 225.034 95.5468 226.236 95.5468C228.208 95.5468 229.711 96.3169 230.744 97.8571V95.8286ZM227.194 106.394C228.19 106.394 229.03 106.06 229.716 105.394C230.401 104.717 230.744 103.886 230.744 102.9C230.744 101.924 230.401 101.097 229.716 100.421C229.03 99.7447 228.19 99.4066 227.194 99.4066C226.217 99.4066 225.382 99.7494 224.687 100.435C223.992 101.111 223.644 101.933 223.644 102.9C223.644 103.877 223.987 104.703 224.673 105.379C225.368 106.056 226.208 106.394 227.194 106.394ZM241.718 89.7994V110H237.647V89.7994H241.718ZM248.677 89.7994V110H244.606V89.7994H248.677ZM261.904 95.8286H265.975V110H261.904V107.986C260.871 109.516 259.369 110.282 257.396 110.282C256.194 110.282 255.086 109.953 254.072 109.296C253.067 108.629 252.274 107.732 251.691 106.605C251.109 105.469 250.818 104.234 250.818 102.9C250.818 101.567 251.109 100.336 251.691 99.2094C252.274 98.0731 253.067 97.1809 254.072 96.5329C255.086 95.8755 256.194 95.5468 257.396 95.5468C259.369 95.5468 260.871 96.3169 261.904 97.8571V95.8286ZM258.354 106.394C259.35 106.394 260.19 106.06 260.876 105.394C261.561 104.717 261.904 103.886 261.904 102.9C261.904 101.924 261.561 101.097 260.876 100.421C260.19 99.7447 259.35 99.4066 258.354 99.4066C257.378 99.4066 256.542 99.7494 255.847 100.435C255.152 101.111 254.804 101.933 254.804 102.9C254.804 103.877 255.147 104.703 255.833 105.379C256.528 106.056 257.368 106.394 258.354 106.394Z" fill="black"/>
 
</svg>
