<?xml version="1.0" encoding="UTF-8"?>
<svg id="Layer_2" xmlns="http://www.w3.org/2000/svg" version="1.1" viewBox="0 0 1000 1000">
  <!-- Generator: Adobe Illustrator 29.2.1, SVG Export Plug-In . SVG Version: 2.1.0 Build 116)  -->
  <defs>
    <style>
      .st0 {
        fill: #c8bd99;
      }
    </style>
  </defs>
  <path class="st0" d="M262.7,560.7h8.3l26.1,26.1c4.6,4.6,11.1,4.6,15.6,0l26.1-26.1h8c9.1,0,13.2-9.6,6.7-16.1l-40.8-40.8c-4.6-4.6-11.1-4.6-15.6,0l-40.8,40.8c-6.5,6.5-2.6,16.1,6.5,16.1M283.5,544.9l19.4-19.4c1-1,2.7-1,3.7,0l19.4,19.4c1.7,1.7.5,4.5-1.9,4.5h-38.9c-2.4,0-3.5-2.9-1.9-4.5"/>
  <path class="st0" d="M598.4,488.3c0,6.7,5.4,12.4,12.2,12.4s12.4-5.6,12.4-12.4-5.4-12.4-12.4-12.4-12.2,5.6-12.2,12.4"/>
  <polygon class="st0" points="624.5 589.1 627.1 588.6 627.2 587.9 624.6 588.5 624.5 589.1"/>
  <path class="st0" d="M626.2,591.7c0,.1-.2.2-.3.4,0,.1-.2.2-.3.4.3.5.4,1,.5,1.5.1.5.2,1,.1,1.6,0-.1.1-.2.2-.3,0-.1.1-.2.2-.3,0-.3,0-.5,0-.8s0-.5,0-.7c0-.2,0-.5-.2-.7,0-.3-.2-.6-.3-.9"/>
  <polygon class="st0" points="626.9 591.4 627.4 590.7 626.8 589.2 626.4 589.9 626.6 590.6 626.3 590.7 626.4 590.5 625.9 589.3 625.5 590 625.7 590.8 625.4 590.8 625.5 590.7 625 589.4 624.5 590.1 624.9 591.2 626.8 591 626.9 591.4"/>
  <path class="st0" d="M632.7,602.1c0,0,0-.2,0-.3v-9.2l.3-.3-.3-2.8-1.7,1.8v9.9h-1.5v-8.6l.3-.3-.3-2.8-1.7,1.8v9.9h-1.6l-1.5-7-1.7,1.9h0c0,.3,0,.5,0,.6,0,.2,0,.3,0,.5,0,.5,0,.8-.1,1.1,0,.3-.2.5-.4.7-.3.3-.6.6-1,.8-.4.2-.8.3-1.1.3l-1.3,2.3h5.2l.4,1.7,1.4-1.7h6c.1,0,.3,0,.3,0,0,0,.1,0,.2,0,0,0,0,0,0-.2M621.8,601.1c.6-.4,1.2-1.1,1.8-2l.4,2h-2.2Z"/>
  <polygon class="st0" points="635.4 601.1 635.4 589.6 633.7 591.3 633.7 602.9 635.4 601.1"/>
  <path class="st0" d="M661.5,602.3h1.7c.5.5,1,.7,1.6.6.6,0,1.2-.3,1.8-.6h10.8c.2,0,.5,0,.8-.2.3-.1.5-.3.8-.6s.4-.5.6-.8c.2-.3.2-.7.2-1s0-.6-.2-.9c-.2-.3-.4-.7-.6-1-.3-.3-.6-.7-1-1-.4-.3-.8-.6-1.2-.8-.4-.2-.9-.4-1.3-.6-.5-.2-.9-.2-1.4-.2s-1.1.1-1.7.4c-.6.3-1.1.7-1.6,1.3-1,1.2-1.9,2.2-2.7,2.8-.8.7-1.4,1-2,1s-.4,0-.6-.1c-.2,0-.4-.2-.5-.3-.2-.1-.3-.3-.4-.4,0-.2-.1-.3-.1-.5l-1.7,1.7v.2h-1.1v-8.6l.3-.3-.3-2.8-1.7,1.8v9.9h-.8c-.7,0-1.4-.1-2.1-.3-.7-.2-1.3-.5-1.9-.9-.5-.4-1-.9-1.3-1.4-.3-.5-.5-1.1-.5-1.7s0-.7.2-1c.1-.2.2-.3.2-.4,0-.2-.2-.2-.5-.2-1.2,0-2.1.1-2.9.3-.8.2-1.3.5-1.8.8-.4.3-.8.7-.9,1.2-.2.4-.3.9-.3,1.3,0,.4.1.8.3,1.2.2.4.6.8,1,1.1h-7.9l.2-.3-.5-.2-1,1.6h10.8c.3.2.6.4,1,.6s.7.4,1.1.6l1.5-2.3c-.5-.3-1-.5-1.5-.8-.5-.3-.9-.6-1.3-.9-.4-.3-.8-.6-1.1-.9-.3-.3-.5-.6-.7-.9.3,0,.7-.1,1.2-.2.5,0,1,0,1.7,0h.4c0,.7.2,1.3.5,1.9.3.6.8,1.1,1.4,1.5.6.4,1.2.8,1.9,1,.7.2,1.4.4,2.2.4h0s3.1,0,3.1,0ZM671.1,597.9c.1-.2.3-.3.6-.4s.5-.1.8-.1.8,0,1.2.2c.4.1.8.3,1.2.5.4.2.7.4,1.1.7.3.3.6.5.9.8.3.3.5.5.7.8.2.2.3.5.4.6l-.2.3h-9.8c.9-.8,1.9-1.9,3-3.3"/>
  <path class="st0" d="M554.6,599.1l-.9,1.7h7.1c.3.3.5.5.8.7.3.2.5.4.7.5.2.1.5.3.7.3.2,0,.4.2.5.2,0,0,0,0,.1,0,0,0,.1,0,.1,0l1.4-1.8h11.5l.3,1.3,1.6-2-1.1-4.9-1.6,2,.5,2.5h-1l.3-.4-.9-4.1-1.6,2,.5,2.5h-1.1l.3-.4-.8-4.1-1.6,2,.5,2.5h-1.7v-8.6l.3-.3-.3-2.8-1.6,1.8v9.9h-2.1l-.9-4.6c0-.1,0-.3-.1-.3,0,0-.1,0-.2,0-.2,0-.4,0-.7.2-.3.2-.5.4-.8.6-.3.3-.5.6-.8.9-.3.4-.5.7-.7,1.1-.2.4-.4.7-.5,1.1-.1.4-.2.7-.3,1h-5.7l.2-.3-.5-.2ZM562.3,597.9c0-.2.1-.3.2-.4,0-.1.2-.3.3-.3,0,0,.2-.2.3-.2l.6,2.7c-.2-.1-.4-.2-.6-.4-.2-.1-.4-.3-.6-.6,0,0-.1-.2-.1-.3s0-.3,0-.4"/>
  <path class="st0" d="M581.3,604.6l-.9,2.2c.6-.2,1.2-.6,1.8-1.1.6-.5,1-1,1.5-1.6.4-.6.7-1.3,1-2,.2-.7.4-1.5.4-2.2s0-.9-.1-1.3l-1.1-5.1c0-.2,0-.3-.2-.3,0,0-.1,0-.2,0-.2,0-.4.1-.6.3-.3.2-.5.5-.8.8-.3.3-.5.6-.7.9-.2.3-.4.5-.5.7-.2.3-.3.5-.5.8-.1.3-.2.5-.3.8,0,.2-.1.5-.2.7,0,.2,0,.4,0,.6,0,.4,0,.7.3,1,.2.3.4.5.7.6.3.2.7.3,1.1.3.4,0,.9.1,1.4.1,0,.2,0,.3,0,.5,0,.2,0,.3,0,.4,0,.7-.2,1.3-.6,1.8-.4.5-.9.9-1.5,1.1M582.2,599c-.2-.2-.3-.4-.3-.6s.2-.8.7-1.3l.5,2.3c-.3,0-.6-.2-.8-.4"/>
  <polygon class="st0" points="600.6 602.8 599.1 601.5 598 603.2 599.6 604.5 600.4 603.2 601.8 604.5 602.9 602.9 601.4 601.5 600.6 602.8"/>
  <path class="st0" d="M606.3,600.8h3.5c.2.1.4.2.6.4.2.1.5.2.7.3.2.1.5.2.7.3.2,0,.4.1.6.2l1.3-2.3c-.5-.1-1-.3-1.5-.5-.5-.2-1-.5-1.4-.8-.4-.3-.8-.7-1.2-1-.3-.4-.6-.7-.7-1,.7-.2,1.7-.3,3.2-.3l1.2-2.3h-.3c-1,0-1.9,0-2.5.2-.7.1-1.2.3-1.6.6-.6.4-1,.8-1.3,1.3-.3.5-.4,1.1-.4,1.7s.1.8.3,1.2c.2.4.5.8.9,1.1h-2.6v-8.6l.3-.3-.3-2.8-1.6,1.8v9.9h-2.1l-.9-4.5-1.6,2,.5,2.5h-5.2l-1.4-7-1.6,1.9h0c0,.3,0,.5,0,.6,0,.2,0,.3,0,.5,0,.5,0,.8-.1,1.1,0,.3-.2.5-.4.7-.3.3-.6.6-1,.8-.4.2-.7.3-1,.3l-1.2,2.3h4.8l.4,1.7,1.3-1.7h5.5l.2,1,.8-1h5ZM590.9,599.6c.6-.4,1.1-1.1,1.7-2l.4,2h-2Z"/>
  <path class="st0" d="M273.3,456.6c1.5,1.5,3.4,2.3,5.5,2.3h89v85.8c0,2.4.9,4.6,2.6,6.3l25.3,25.3v2.9h283l26.7,26.5c1.7,1.7,3.9,2.6,6.3,2.6h39.7l-102.3-102.3c-4.6-4.6-11.1-4.6-15.6,0l-30,30h6.1l5.2-5.2c4.6-4.6,11.1-4.6,15.6,0l17.6,17.6h-61.5l-27.8-30.8c-1.7-2-4.3-3-7-3h-80.1c-2.4,0-4.6.9-6.3,2.6l-19.5,19.5c-2.2,2.2-5.4.9-5.4-2.2v-98.1l8.9-8.9c4-4,9.7-4,13.7,0l29.1,29.1c.9.9,1.9,1.5,3.1,1.9v.4h152.5c2.1,0,4-.8,5.5-2.3l24.7-24.7h-49.1c-2.1,0-4-.8-5.5-2.3l-18.6-18.6c-4-4-4-9.7,0-13.7l27.4-27.4h-5.5l-31.6,31.6-12.2,12.4c-3.8,4-4,9.7,0,13.7l4.4,4.4h-51.7c-3.2,0-5.9-2.7-5.9-5.9v-90.2c0-2.1.8-4,2.3-5.5l19.4-19.2h-17.3c-5.5,0-9.7,4.2-9.7,9.7v105.2c0,3.2-2.7,5.9-5.9,5.9h-9.5c-2.1,0-4-.8-5.5-2.3l-24-24c-4-4-9.7-4-13.7,0l-24,24c-.4.4-.9.8-1.3,1.1v-92.8c0-2.4.9-4.6,2.6-6.3l21.9-21.9h-19.8c-6.3,0-11.1,4.8-11.1,11.1v111.2h-60.3v-94c0-2.4.9-4.6,2.6-6.3l22.2-21.9h-19.8c-6.3,0-11.1,4.8-11.1,11.1v111.2h-119.2l24.7,24.7ZM446.6,545.3h109.4v3h-112.4l3-3ZM414.6,458.9c2.1,0,4-.8,5.5-2.3l14-14v94.4c0,6.3-4.8,11.1-11.1,11.1l-27.4.2h-17.5c-2.4,0-4.3-2-4.3-4.3v-85.1h40.7Z"/>
  <polygon class="st0" points="260.4 632.6 257.4 630.2 255.2 633.2 258.3 635.7 259.9 633.3 262.9 635.7 264.9 632.6 261.9 630.2 260.4 632.6"/>
  <polygon class="st0" points="367.7 633 370.6 635.4 372.8 632.3 369.7 629.8 368 632.2 365.1 629.8 362.9 632.9 366 635.4 367.7 633"/>
  <path class="st0" d="M370.5,637c-.3,0-.6.2-1.1.5-.5.3-1,.8-1.5,1.3-.5.5-1.1,1.2-1.7,1.9-.6.7-1.1,1.5-1.5,2.2-.5.8-.8,1.6-1.1,2.4-.3.8-.4,1.6-.4,2.3s.2,1.3.6,1.8h-3.9c.3-.4.5-.8.7-1.3.2-.5.3-1,.3-1.5s-.1-1.1-.4-1.8c-.3-.7-.7-1.3-1.2-1.9-.5-.6-1.1-1.2-1.8-1.8-.7-.6-1.4-1.1-2.3-1.6-.8-.5-1.6-.8-2.5-1.1-.9-.3-1.7-.4-2.6-.4s-2.1.3-3.1.8c-1,.5-2.1,1.3-3,2.5-1.9,2.3-3.6,4.1-5,5.4-1.4,1.2-2.7,1.8-3.8,1.8s-.7,0-1-.2c-.4-.1-.7-.3-1-.5-.3-.2-.5-.5-.7-.8s-.3-.7-.3-1l-3.2,3.3v.3h-61.3l-2.9-13.2-3.3,3.6v.2c.1.3.2.6.2,1,0,.3,0,.6,0,.9,0,.9,0,1.6-.3,2.1-.2.5-.4,1-.7,1.2-.5.6-1.2,1.1-1.9,1.4-.8.3-1.4.5-2,.5l-2.4,4.3h9.7l.7,3.1,2.6-3.1h62.5c.9.9,1.9,1.3,3,1.2,1.1,0,2.2-.5,3.3-1.2h32.3c.3.1.6.2,1,.3.3,0,.7.2,1.1.4l3-4-2.4-10.6c0-.4-.3-.6-.7-.6M259.3,649.3c1.1-.8,2.3-2.1,3.4-3.7l.7,3.7h-4.1ZM357.3,649.3h-18.3c1.7-1.6,3.6-3.6,5.7-6.1.3-.4.7-.6,1.2-.8.5-.2,1-.2,1.7-.2,1,0,2.1.2,3.2.7,1.1.5,2.1,1.1,3,1.7.9.7,1.8,1.4,2.4,2.2.7.8,1.1,1.4,1.4,1.9l-.3.5ZM368.1,646.1c-.3-.2-.7-.4-1.1-.7-.4-.3-.6-.6-.6-1.1s0-.5.2-.8c0-.3.2-.5.4-.8.2-.3.3-.5.5-.7.2-.2.3-.4.5-.6l1.1,5.1c-.3-.1-.6-.2-1-.4"/>
  <polygon class="st0" points="393.5 655.5 390.5 653 388.5 656.1 391.4 658.6 393.1 656.2 396 658.6 398.2 655.6 395.1 653 393.5 655.5"/>
  <path class="st0" d="M403.9,653.7l2.8-4.3c-1-.5-1.9-1-2.8-1.5-.9-.5-1.7-1.1-2.4-1.6-.7-.6-1.4-1.1-1.9-1.7-.6-.6-1-1.1-1.4-1.6.6-.2,1.4-.3,2.3-.5.9-.1,2-.2,3.2-.2h.9l2.4-4.3c-2.5,0-4.6.2-6.2.6-1.6.4-2.9.9-3.8,1.5-.9.6-1.6,1.3-1.9,2.2-.4.8-.5,1.7-.6,2.5,0,.8.2,1.6.6,2.2.4.7,1.1,1.4,2,2.2h-15.3l.4-.6-.9-.3-1.9,3.1h20.7c.6.4,1.2.8,1.8,1.1.6.4,1.3.7,1.9,1"/>
  <path class="st0" d="M412.4,658.6l-1.9,4.2c1.3-.5,2.5-1.1,3.6-2,1.1-.9,2.1-1.9,2.9-3,.8-1.1,1.5-2.4,2-3.8.5-1.3.7-2.7.7-4.2s0-1.7-.3-2.5l-2.2-9.6c0-.3-.2-.5-.3-.6-.2,0-.3-.1-.4-.1-.4,0-.8.2-1.3.6-.5.4-1,.9-1.6,1.5-.5.6-1,1.1-1.4,1.7-.4.6-.7,1-.9,1.3-.4.5-.7,1-.9,1.5-.3.5-.5,1-.6,1.5-.2.5-.3.9-.4,1.3,0,.4,0,.8,0,1.1,0,.8.2,1.4.5,1.9.4.5.8.9,1.5,1.2.6.3,1.4.5,2.2.6.9.1,1.8.2,2.7.2,0,.3.1.6.2.9,0,.3,0,.6,0,.8,0,1.3-.4,2.4-1.1,3.3-.8.9-1.8,1.6-3.1,2.1M414.2,648.2c-.4-.3-.6-.7-.6-1.2s.5-1.5,1.3-2.5l1,4.4c-.7-.2-1.2-.4-1.7-.7"/>
  <polygon class="st0" points="489.6 633.4 487.6 636.4 490.6 638.9 492.3 636.5 495.2 638.9 497.3 635.9 494.2 633.4 492.6 635.8 489.6 633.4"/>
  <path class="st0" d="M493.7,642.9l1.4,6.4h-67.7c0-.5,0-1.1-.2-1.9-.1-.8-.3-1.5-.5-2.2-.2-.7-.4-1.3-.5-1.8-.2-.5-.3-.7-.3-.7l-3.1,4c.2.5.4,1,.6,1.5.2.6.4,1.1.5,1.7.1.6.3,1.1.3,1.7,0,.6.1,1.1.1,1.6,0,1.3-.4,2.4-1.1,3.3-.8.9-1.8,1.7-3.1,2.1l-1.9,4.2c1.1-.4,2.2-1,3.2-1.8,1-.8,2-1.7,2.8-2.7s1.5-2.1,2.1-3.3c.6-1.2.9-2.4,1-3.5h68.2l.4,1.9,3.2-3.7-2.3-10.5-3.2,3.7Z"/>
  <path class="st0" d="M517.4,639c-.3,0-.6.2-1.1.5-.5.3-1,.8-1.6,1.3-.6.5-1.1,1.2-1.7,1.9-.6.7-1.1,1.5-1.6,2.3-.5.8-.8,1.6-1.1,2.4-.3.8-.5,1.6-.5,2.3s.3,1.6.9,2.1c.6.5,1.3.9,2.1,1.3.8.3,1.6.6,2.5.8.9.2,1.6.4,2.2.7l3-4-2.4-11c0-.4-.3-.6-.6-.6M515,648.5c-.4-.2-.8-.4-1.2-.7-.4-.3-.6-.7-.6-1.2s0-.6.2-.9c.1-.3.3-.6.4-.9.2-.3.3-.5.5-.8.2-.2.4-.4.5-.5l1.2,5.4c-.3-.1-.7-.3-1.1-.4"/>
  <polygon class="st0" points="511.5 632.5 509.4 635.6 512.4 638.1 514.1 635.7 517.1 638.1 519.2 635 516.1 632.5 514.5 634.9 511.5 632.5"/>
  <polygon class="st0" points="627.3 638.3 630.3 640.8 632.6 637.5 629.5 635.1 627.3 638.3"/>
  <path class="st0" d="M531.4,656.2c.6-1.2.9-2.4,1-3.5h107c.1.1.2.2.3.2l2.9-4.2c-.6-.5-1.4-1.2-2.4-1.9-1-.8-2.1-1.5-3.3-2.2-1.2-.7-2.5-1.3-3.8-1.8-1.3-.5-2.6-.7-3.8-.7s-1.6.1-2.4.4c-.8.3-1.6.8-2.4,1.4-.8.6-1.5,1.5-2.2,2.4-.7,1-1.3,2.2-1.7,3.5l2.9-1.7c.3-.6.6-1.1,1.1-1.3.5-.3,1.2-.4,2.2-.4s1.6.1,2.4.4c.8.3,1.7.6,2.5.9.8.4,1.7.8,2.5,1.3.8.5,1.6,1,2.2,1.4h-18.6c.1-.3.3-.6.5-1.1.2-.4.3-.8.3-1.3,0-.8-.2-1.6-.7-2.3-.5-.8-1.1-1.6-1.9-2.3-.5-.5-1.1-.9-1.8-1.4-.7-.5-1.4-.9-2.1-1.3-.7-.4-1.5-.7-2.3-.9-.8-.2-1.6-.3-2.3-.3s-1.9.2-2.8.6c-.9.4-1.8,1-2.6,1.9-1.4,1.5-2.7,2.9-3.9,4.1-1.3,1.1-2.3,2-3.3,2.6-.9.6-1.7.8-2.2.7-.6,0-.8-.6-.8-1.6v-9.6s1.6-1.9,1.6-1.9l-1.5-3.5v-2.5l-3.3,3.3v17h-54.6c-.4,0-.8,0-1.4,0,0-.7,0-1.3-.2-1.9l-2.2-9.6c0-.3-.2-.5-.4-.6-.2,0-.3-.1-.4-.1-.4,0-.8.2-1.3.6-.5.4-1,.9-1.5,1.5-.5.6-1,1.1-1.4,1.7-.4.6-.8,1-1,1.3-.4.5-.7,1-.9,1.5-.3.5-.5,1-.6,1.5-.2.5-.3.9-.3,1.3,0,.4-.1.8-.1,1.1,0,.8.2,1.4.5,1.9.4.5.9.9,1.5,1.2.6.3,1.4.5,2.2.6.8.1,1.8.2,2.7.2,0,.3.1.6.2.9,0,.3,0,.6,0,.8,0,1.3-.4,2.4-1.1,3.3-.8.9-1.8,1.6-3.1,2.1l-1.9,4.2c1.1-.4,2.2-1,3.2-1.8,1-.8,2-1.7,2.8-2.8.8-1,1.5-2.1,2.1-3.3M599,648.2c1-.9,2.1-2.1,3.4-3.6.2-.3.5-.5.9-.6.4-.1.8-.2,1.2-.2,1.1,0,2.1.2,3.2.7,1.1.4,2.1,1,3.1,1.6,1,.6,1.9,1.3,2.6,2,.8.7,1.3,1.3,1.7,1.9l-.2.5h-18.7c.8-.6,1.8-1.4,2.8-2.3M526.9,649.4c-.4-.3-.6-.7-.6-1.2s.1-.7.3-1.1c.2-.4.5-.9,1-1.4l1,4.4c-.7-.1-1.2-.4-1.7-.7"/>
  <path class="st0" d="M751,632.2l-13.2,6.8h0s-2.8,4.3-2.8,4.3c.7.3,1.5.6,2.3,1,.8.4,1.7.9,2.7,1.5.9.6,1.9,1.3,2.9,2,1,.8,2,1.7,3,2.7h-76.2c0-2.7,0-5.3,0-8,0-2.7,0-5.3,0-8.1l.6-.6-.6-5.2-1.6,1.8-1.6,1.6v20.5c-.1.5-.4.9-.7,1.2-.4.3-.8.6-1.3.8-.5.2-1,.4-1.6.5-.6.1-1.1.2-1.7.2-1,0-2.1-.2-3.1-.5-1-.3-1.9-.8-2.7-1.5-.8-.7-1.4-1.5-1.9-2.5-.5-1-.7-2.1-.7-3.4v-.4l-3.3,3.2v.4c0,1.5.3,2.8.8,3.9.5,1.1,1.2,2.1,2.1,2.8.9.8,1.8,1.3,2.9,1.7,1.1.4,2.2.6,3.4.6s2.1-.2,3.1-.5c1-.3,2-.7,2.9-1.3.9-.6,1.7-1.3,2.5-2.1.7-.8,1.3-1.8,1.8-3h79.1s3-4.1,3-4.1c-1-1.2-2-2.2-3-3.2-1-.9-2-1.8-3-2.5-1-.7-1.9-1.3-2.9-1.8-.9-.5-1.8-1-2.6-1.4l10.7-5.6.8-2.1Z"/>
  <polygon class="st0" points="257.6 681.5 267.3 681.5 267.3 679.2 257.6 679.2 257.6 673.2 268.5 673.2 268.5 670.8 254.8 670.8 254.8 690.2 268.8 690.2 268.8 687.8 257.6 687.8 257.6 681.5"/>
  <polygon class="st0" points="284.6 686.7 277.6 670.8 274.7 670.8 283.2 690.2 285.9 690.2 294.4 670.8 291.6 670.8 284.6 686.7"/>
  <polygon class="st0" points="304.2 681.5 313.9 681.5 313.9 679.2 304.2 679.2 304.2 673.2 315.1 673.2 315.1 670.8 301.4 670.8 301.4 690.2 315.4 690.2 315.4 687.8 304.2 687.8 304.2 681.5"/>
  <path class="st0" d="M340.1,677.6c0-4.2-3-6.7-8.1-6.7h-7.5v19.3h2.8v-5.9h4.8c.4,0,.8,0,1.2,0l4.2,5.9h3l-4.6-6.5c2.7-1,4.3-3.1,4.3-6.1M331.9,681.9h-4.7v-8.7h4.7c3.5,0,5.4,1.6,5.4,4.3s-1.8,4.4-5.4,4.4"/>
  <polygon class="st0" points="355 681 348.8 670.8 345.8 670.8 353.5 683.4 353.5 690.2 356.2 690.2 356.2 683.5 363.9 670.8 361.2 670.8 355 681"/>
  <path class="st0" d="M384.7,676c0-1.7,1.4-3.1,4.7-3.1s3.6.5,5.3,1.6l.9-2.2c-1.6-1.1-4-1.7-6.2-1.7-5.1,0-7.4,2.5-7.4,5.5,0,7.2,11.7,4.2,11.7,8.9s-1.4,3-4.8,3-4.9-.9-6.4-2.2l-1,2.2c1.5,1.4,4.4,2.4,7.4,2.4,5.1,0,7.5-2.5,7.5-5.5,0-7.1-11.7-4.1-11.7-8.9"/>
  <polygon class="st0" points="401.9 673.2 408.5 673.2 408.5 690.2 411.3 690.2 411.3 673.2 417.9 673.2 417.9 670.8 401.9 670.8 401.9 673.2"/>
  <polygon class="st0" points="428.2 681.5 437.9 681.5 437.9 679.2 428.2 679.2 428.2 673.2 439.1 673.2 439.1 670.8 425.5 670.8 425.5 690.2 439.5 690.2 439.5 687.8 428.2 687.8 428.2 681.5"/>
  <path class="st0" d="M456.1,670.8h-7.5v19.3h2.8v-5.9h4.8c5,0,8.1-2.6,8.1-6.7s-3-6.7-8.1-6.7M456,681.9h-4.7v-8.7h4.7c3.5,0,5.4,1.6,5.4,4.3s-1.8,4.3-5.4,4.3"/>
  <polygon class="st0" points="482.2 673.2 488.9 673.2 488.9 690.2 491.6 690.2 491.6 673.2 498.2 673.2 498.2 670.8 482.2 670.8 482.2 673.2"/>
  <polygon class="st0" points="508.6 681.5 518.3 681.5 518.3 679.2 508.6 679.2 508.6 673.2 519.4 673.2 519.4 670.8 505.8 670.8 505.8 690.2 519.8 690.2 519.8 687.8 508.6 687.8 508.6 681.5"/>
  <polygon class="st0" points="531.6 670.8 528.9 670.8 528.9 690.2 542.1 690.2 542.1 687.8 531.6 687.8 531.6 670.8"/>
  <polygon class="st0" points="552.6 670.8 549.8 670.8 549.8 690.2 563.1 690.2 563.1 687.8 552.6 687.8 552.6 670.8"/>
  <path class="st0" d="M572,676c0-1.7,1.4-3.1,4.7-3.1s3.6.5,5.3,1.6l.9-2.2c-1.6-1.1-4-1.7-6.2-1.7-5.1,0-7.4,2.5-7.4,5.5,0,7.2,11.7,4.2,11.7,8.9s-1.4,3-4.8,3-4.9-.9-6.4-2.2l-1,2.2c1.5,1.4,4.4,2.4,7.4,2.4,5.1,0,7.5-2.5,7.5-5.5,0-7.1-11.7-4.1-11.7-8.9"/>
  <path class="st0" d="M610.1,670.8l-8.8,19.3h2.8l2.1-4.8h10.3l2.1,4.8h2.9l-8.8-19.3h-2.7ZM607.3,683.1l4.2-9.5,4.2,9.5h-8.3Z"/>
  <path class="st0" d="M642.5,676c0-1.7,1.4-3.1,4.7-3.1s3.6.5,5.3,1.6l.9-2.2c-1.6-1.1-4-1.7-6.2-1.7-5.1,0-7.4,2.5-7.4,5.5,0,7.2,11.7,4.2,11.7,8.9s-1.4,3-4.8,3-4.9-.9-6.4-2.2l-1,2.2c1.5,1.4,4.4,2.4,7.4,2.4,5.1,0,7.5-2.5,7.5-5.5,0-7.1-11.7-4.1-11.7-8.9"/>
  <polygon class="st0" points="659.7 673.2 666.4 673.2 666.4 690.2 669.1 690.2 669.1 673.2 675.7 673.2 675.7 670.8 659.7 670.8 659.7 673.2"/>
  <path class="st0" d="M691.7,670.6c-5.9,0-10.3,4.2-10.3,9.9s4.4,9.9,10.3,9.9,10.3-4.2,10.3-9.9-4.4-9.9-10.3-9.9M691.7,687.9c-4.3,0-7.5-3.1-7.5-7.4s3.2-7.4,7.5-7.4,7.5,3.1,7.5,7.4-3.2,7.4-7.5,7.4"/>
  <path class="st0" d="M726.4,677.6c0-4.2-3-6.7-8.1-6.7h-7.5v19.3h2.8v-5.9h4.8c.4,0,.8,0,1.2,0l4.2,5.9h3l-4.6-6.5c2.7-1,4.3-3.1,4.3-6.1M718.2,681.9h-4.7v-8.7h4.7c3.5,0,5.4,1.6,5.4,4.3s-1.8,4.4-5.4,4.4"/>
  <polygon class="st0" points="741.3 681 735.1 670.8 732.1 670.8 739.8 683.4 739.8 690.2 742.5 690.2 742.5 683.5 750.2 670.8 747.5 670.8 741.3 681"/>
  <path class="st0" d="M490.2,499.8s30.2-11.2,45.6-16.9c9.2-3.4,12.6-12.7,12.6-12.7l-58.2,22v7.6Z"/>
  <path class="st0" d="M612.8,346.9c9.2-3.4,12.6-12.7,12.6-12.7l-58.2,22v7.6c0,0,30.3-11.2,45.6-16.9"/>
  <path class="st0" d="M697.4,496.4c-12.4,8.1-21.3,8.7-21.3,8.7.8,4.2,1.2,5.8,9,5.3,7.9-.5,19.1-12.3,19.1-12.3h5.9c5.7-.2,6-6.4,6-6.4h-6.7c1.4-2.2,1-6.7.8-8.9-.3-4.5-2.5-10.6-7.4-11.6-1.4-.3-2.8,0-4.1.6-8.9,4.2-9.6,10.5-9.5,15.6,0,5.3,8.1,9,8.1,9M699.3,478.5c1.9-.2,5.2,2.9,5.1,5.8,0,2.9,0,4.1,0,4.1,0,0,0,2-2.2,1.7-2.2-.4-7.5-3.4-7.6-6.8-.1-3.5,2.8-4.6,4.8-4.8"/>
</svg>