<svg width="94" height="50" viewBox="0 0 94 50" fill="none" xmlns="http://www.w3.org/2000/svg">
<path d="M24.6266 3.39752C24.6266 3.39752 24.2015 4.96899 23.7763 4.96899H15.9375C15.9375 4.96899 16.3626 3.39752 16.6926 3.39752H24.6266Z" fill="#36A270"/>
<path d="M31.3318 5.42074C31.8513 5.42074 32.4175 5.21198 32.7953 4.79293C32.7953 4.47786 32.6064 3.74528 32.3702 3.48336C31.8034 2.85478 31.0477 2.4881 30.1502 2.43572C30.0564 2.59286 29.9147 3.06431 29.9147 3.53575C29.9147 4.00719 29.962 4.53101 30.1502 4.79293C30.4343 5.26437 30.8594 5.42074 31.3318 5.42074ZM33.5511 3.48336C33.3622 4.79293 32.6064 6.3644 31.4262 6.83507C31.2366 6.88745 31.0956 6.88745 30.9539 6.88745C29.9147 6.88745 29.1597 6.20725 29.1597 4.79293C29.1597 3.48336 29.6786 1.49283 30.6225 0.969779C30.6225 0.969779 30.8594 0.865015 31.0011 0.865015C32.182 0.865015 33.5511 1.96505 33.5511 3.48336Z" fill="#C3DA5B"/>
<path d="M72.2988 3.39752C72.2988 3.39752 71.8737 4.96899 71.4486 4.96899H51.9775C51.9775 4.96899 52.4026 3.39752 52.7326 3.39752H72.2988Z" fill="#36A270"/>
<path d="M7.24863 24.7845C6.21016 24.7321 5.45371 23.8416 5.45371 22.7939C5.50095 21.5899 6.30463 20.7518 7.24863 20.7518C8.33502 20.8034 9.09008 21.6939 9.09008 22.8995C9.04284 23.9463 8.24055 24.7845 7.24863 24.7845ZM34.1174 11.4809C33.7402 11.4809 31.1903 14.781 31.1903 14.8333L32.3711 24.5218H28.2159H24.4364H24.1079L23.9189 22.1661C23.3042 17.0326 22.4547 13.4198 22.313 13.1055C21.8406 13.1055 19.0072 16.7191 19.0072 16.7715C19.6213 19.6518 20.1874 21.851 20.2353 24.5218H17.5909H13.9538H13.3877C13.0098 19.6001 12.3493 11.7959 12.2548 10.6959C12.2548 10.434 12.1596 10.3292 12.0186 10.3292C11.2629 10.3292 9.04284 13.5762 9.04284 13.5762L9.13731 15.4619C8.33502 15.9334 7.34309 16.4048 6.21016 16.7191C3.32885 17.5048 1.29846 19.0232 0.589945 22.3749C0.494782 22.7939 0.448242 23.1606 0.448242 23.5797C0.448242 26.3552 1.81804 28.3973 4.46248 28.9735C5.3127 29.183 6.2567 29.2886 7.10692 29.2886C7.90991 29.2886 8.66566 29.183 9.18524 28.9735H13.9538H17.5909H24.4364H28.2159H32.7956C35.9596 28.9735 36.1958 27.7171 36.1958 26.3035C36.1958 24.8361 35.5824 19.8605 35.5824 19.8605L36.7626 17.3993C34.7322 14.3627 34.3071 11.8483 34.1174 11.4809Z" fill="#36A270"/>
<path d="M68.7801 26.0407C67.6937 26.0407 66.8907 24.9406 66.8907 23.9461C66.8907 22.6366 67.8826 21.7469 68.7801 21.7469C69.9602 21.7469 70.7639 22.8469 70.7639 24.0509C70.7167 25.1509 69.8185 26.0407 68.7801 26.0407ZM85.4025 8.49642C83.7493 5.19633 83.2776 3.36448 83.1359 2.99703C82.758 2.99703 79.8774 5.93045 79.8774 5.98283L80.3018 24.5216H78.8862H77.0906H76.1473C75.9576 23.4231 75.627 22.2699 75.1553 21.2746C73.9752 18.9182 71.5183 16.6665 69.0635 16.6665C63.8211 16.8761 61.7907 24.5216 61.7907 24.5216H59.4763H59.0053C58.0134 23.1604 56.6908 20.7516 56.1247 19.023C55.4162 16.9801 53.1968 15.5141 52.0632 15.5141H42.6649C42.2877 15.5141 41.9571 15.6189 41.7682 15.8816C41.6265 16.1959 40.9179 17.3991 40.4456 18.4991C40.3039 18.8666 40.2574 19.1809 40.2574 19.442C40.2574 19.8611 40.3984 20.0706 40.4928 20.0706H50.5052C52.3466 20.0706 53.4803 24.5216 53.4803 24.5216H38.8876C38.8876 24.5216 37.8956 26.8272 37.7067 27.8741C37.6602 28.0836 37.6602 28.24 37.6602 28.3979C37.6602 28.9209 37.8956 28.9741 38.0373 28.9741H59.4763H61.7435C62.3103 28.9741 65.002 30.5456 67.6937 30.5972H69.5358C71.33 30.5972 73.9752 29.9162 75.0609 28.9741H77.0906H78.8862H82.758C83.8437 28.9741 83.8437 27.8741 83.8437 26.9312V26.7224C83.8437 26.5645 83.9861 10.7481 83.9861 10.7481L85.4025 8.49642Z" fill="#36A270"/>
<path d="M92.3919 28.4501V10.8527L93.809 8.60028C92.1558 5.30172 91.8724 3.46834 91.7307 3.15404C91.2118 3.15404 88.7083 5.72001 88.4722 6.08746C88.4722 6.08746 88.5194 8.18122 89.1335 30.6494L92.3919 28.4501Z" fill="#36A270"/>
<path d="M3.56472 3.99177C4.60388 4.62036 5.97368 6.13945 5.97368 6.08707C5.97368 6.19106 5.92575 6.34898 5.78405 6.50613L3.51749 9.54354C3.42302 9.6483 3.37648 9.70068 3.28201 9.70068C3.18754 9.70068 3.09238 9.6483 2.95137 9.49115C2.24215 8.86257 0.873047 7.60539 0.873047 7.55301C0.873047 7.44824 0.919587 7.34425 1.06199 7.13395C1.34539 6.76804 3.23408 4.2013 3.23408 4.2013C3.23408 4.2013 3.37648 3.99177 3.56472 3.99177Z" fill="#74C15B"/>
<path d="M9.23228 3.9924C10.129 4.67337 11.5933 6.03454 11.5933 6.14008C11.5933 6.08769 9.51499 9.22987 9.04265 9.64893C9.04265 9.64893 8.712 9.59654 8.61753 9.49178C7.67354 8.81081 6.49268 7.50202 6.49268 7.50202C6.49268 7.39648 6.53991 7.29172 6.68161 7.13457C7.01226 6.76866 8.90164 4.20193 8.90164 4.20193C8.90164 4.20193 9.04265 3.9924 9.23228 3.9924Z" fill="#74C15B"/>
<path d="M17.6038 8.11433C18.6429 8.74292 20.012 10.262 20.012 10.2096C20.012 10.3144 19.9648 10.4715 19.8231 10.6287L17.5565 13.6661C17.4621 13.7709 17.4155 13.8232 17.3204 13.8232C17.2259 13.8232 17.1314 13.7709 16.9897 13.6145C16.2812 12.9851 14.9121 11.7279 14.9121 11.6763C14.9121 11.5716 14.9586 11.4668 15.101 11.2573C15.3838 10.8906 17.2731 8.32386 17.2731 8.32386C17.2731 8.32386 17.4155 8.11433 17.6038 8.11433Z" fill="#74C15B"/>
<path d="M26.7035 37.6676C26.6091 37.7724 26.5618 37.824 26.4673 37.824C26.3729 37.824 26.2784 37.7724 26.1367 37.6152C25.8533 37.4057 24.1063 35.8342 24.1063 35.8342C24.1063 35.8342 24.0591 35.7818 24.0591 35.6771C24.0591 35.5723 24.0591 35.4152 24.2001 35.258C24.5314 34.8913 26.4201 32.3254 26.4201 32.3254C26.4201 32.3254 26.5618 32.1158 26.8452 32.1158C27.0342 32.273 29.0646 34.0008 29.0646 34.0008C29.0646 34.0008 29.159 34.054 29.159 34.2111C29.159 34.3151 29.1125 34.473 28.9701 34.6302L26.7035 37.6676Z" fill="#74C15B"/>
<path d="M31.9926 37.6676C31.8981 37.7724 31.8509 37.824 31.7564 37.824C31.6619 37.824 31.5675 37.7724 31.4258 37.6152C31.1424 37.4057 29.3954 35.8342 29.3954 35.8342C29.3954 35.8342 29.3481 35.7818 29.3481 35.6771C29.3481 35.5723 29.3481 35.4152 29.4892 35.258C29.8205 34.8913 31.7099 32.3254 31.7099 32.3254C31.7099 32.3254 31.8509 32.1158 32.135 32.1158C32.3232 32.273 34.3536 34.0008 34.3536 34.0008C34.3536 34.0008 34.4481 34.054 34.4481 34.2111C34.4481 34.3151 34.4015 34.473 34.2598 34.6302L31.9926 37.6676Z" fill="#74C15B"/>
<path d="M83.9651 49.9727H93.735V47.8257H83.9651V49.9727ZM0.459961 49.9727H10.2299V47.8257H0.459961V49.9727Z" fill="#36A270"/>
<path d="M19.3912 46.661L18.9994 45.1789C18.8911 44.7667 18.7799 44.2437 18.6834 43.8362H18.6639C18.5709 44.246 18.4771 44.776 18.3757 45.1812L17.9999 46.661H19.3912ZM17.7936 47.835L17.3504 49.626H15.8799L17.7991 42.653H19.6593L21.6168 49.626H20.0851L19.6017 47.835H17.7936Z" fill="#565656"/>
<path d="M23.7588 42.653H25.1807V48.3041H27.682V49.626H23.7588V42.653Z" fill="#565656"/>
<path d="M35.1427 46.9591C35.1136 46.114 35.0851 45.1088 35.0885 44.0865H35.0628C34.8621 44.9793 34.5981 45.97 34.3613 46.7927L33.5916 49.512H32.4865L31.8092 46.8166C31.6064 45.9962 31.3973 45.0055 31.2417 44.0865H31.2223C31.191 45.0348 31.1556 46.111 31.1181 46.9799L31.0007 49.626H29.6851L30.0879 42.653H31.9829L32.5962 44.984C32.7956 45.7836 32.9887 46.6594 33.1297 47.4768H33.1596C33.3318 46.6695 33.5444 45.7497 33.7576 44.9732L34.4259 42.653H36.2854L36.623 49.626H35.2407L35.1427 46.9591Z" fill="#565656"/>
<path d="M42.0497 46.661L41.6579 45.1789C41.5496 44.7667 41.4384 44.2437 41.3419 43.8362H41.3224C41.23 44.246 41.1356 44.776 41.0342 45.1812L40.6591 46.661H42.0497ZM40.4521 47.835L40.0089 49.626H38.5391L40.4576 42.653H42.3178L44.276 49.626H42.7443L42.2602 47.835H40.4521Z" fill="#565656"/>
<path d="M47.8378 48.44C47.9621 48.4654 48.1601 48.4669 48.3331 48.4669C49.6209 48.4793 50.4676 47.6897 50.4676 46.0235C50.4704 44.5737 49.7056 43.8126 48.4838 43.8126C48.1726 43.8126 47.9635 43.8419 47.8378 43.8727V48.44ZM46.418 42.7488C46.941 42.6548 47.6224 42.5993 48.3344 42.5993C49.5278 42.5993 50.3072 42.8428 50.9087 43.3481C51.5624 43.8881 51.9729 44.7385 51.9729 45.9711C51.9729 47.3076 51.5367 48.2312 50.933 48.7959C50.2711 49.4075 49.2583 49.6995 48.0323 49.6995C47.2932 49.6995 46.7667 49.6502 46.418 49.5962V42.7488Z" fill="#565656"/>
<path d="M55.6353 49.626H54.2134V42.653H55.6353V49.626Z" fill="#565656"/>
<path d="M58.1768 49.626V42.653H59.8327L61.1379 45.2112C61.5144 45.9423 61.8819 46.815 62.166 47.6023L62.1896 47.5992C62.1028 46.6779 62.0757 45.7404 62.0757 44.6866V42.653H63.3802V49.626H61.8909L60.5433 46.9414C60.1682 46.1888 59.7556 45.2952 59.4507 44.4771L59.4194 44.4802C59.4639 45.4046 59.4813 46.3914 59.4813 47.5299V49.626H58.1768Z" fill="#565656"/>
<path d="M68.9701 46.661L68.5783 45.1789C68.47 44.7667 68.3588 44.2437 68.2623 43.8362H68.2428C68.1505 44.246 68.056 44.776 67.9546 45.1812L67.5795 46.661H68.9701ZM67.3725 47.835L66.9293 49.626H65.4595L67.378 42.653H69.2382L71.1964 49.626H69.6647L69.1806 47.835H67.3725Z" fill="#565656"/>
<path d="M72.9336 49.5088V42.6444H74.3458V45.2766H76.9173V42.6444H78.3294V49.5088H76.9173V46.741H74.3458V49.5088H72.9336Z" fill="#565656"/>
<path d="M24.6266 3.39752C24.6266 3.39752 24.2015 4.96899 23.7763 4.96899H15.9375C15.9375 4.96899 16.3626 3.39752 16.6926 3.39752H24.6266Z" fill="#36A270"/>
<path d="M31.3318 5.42074C31.8513 5.42074 32.4175 5.21198 32.7953 4.79293C32.7953 4.47786 32.6064 3.74528 32.3702 3.48336C31.8034 2.85478 31.0477 2.4881 30.1502 2.43572C30.0564 2.59286 29.9147 3.06431 29.9147 3.53575C29.9147 4.00719 29.962 4.53101 30.1502 4.79293C30.4343 5.26437 30.8594 5.42074 31.3318 5.42074ZM33.5511 3.48336C33.3622 4.79293 32.6064 6.3644 31.4262 6.83507C31.2366 6.88745 31.0956 6.88745 30.9539 6.88745C29.9147 6.88745 29.1597 6.20725 29.1597 4.79293C29.1597 3.48336 29.6786 1.49283 30.6225 0.969779C30.6225 0.969779 30.8594 0.865015 31.0011 0.865015C32.182 0.865015 33.5511 1.96505 33.5511 3.48336Z" fill="#36A270"/>
<path d="M72.2988 3.39752C72.2988 3.39752 71.8737 4.96899 71.4486 4.96899H51.9775C51.9775 4.96899 52.4026 3.39752 52.7326 3.39752H72.2988Z" fill="#36A270"/>
<path d="M7.24863 24.7845C6.21016 24.7321 5.45371 23.8416 5.45371 22.7939C5.50095 21.5899 6.30463 20.7518 7.24863 20.7518C8.33502 20.8034 9.09008 21.6939 9.09008 22.8995C9.04284 23.9463 8.24055 24.7845 7.24863 24.7845ZM34.1174 11.4809C33.7402 11.4809 31.1903 14.781 31.1903 14.8333L32.3711 24.5218H28.2159H24.4364H24.1079L23.9189 22.1661C23.3042 17.0326 22.4547 13.4198 22.313 13.1055C21.8406 13.1055 19.0072 16.7191 19.0072 16.7715C19.6213 19.6518 20.1874 21.851 20.2353 24.5218H17.5909H13.9538H13.3877C13.0098 19.6001 12.3493 11.7959 12.2548 10.6959C12.2548 10.434 12.1596 10.3292 12.0186 10.3292C11.2629 10.3292 9.04284 13.5762 9.04284 13.5762L9.13731 15.4619C8.33502 15.9334 7.34309 16.4048 6.21016 16.7191C3.32885 17.5048 1.29846 19.0232 0.589945 22.3749C0.494782 22.7939 0.448242 23.1606 0.448242 23.5797C0.448242 26.3552 1.81804 28.3973 4.46248 28.9735C5.3127 29.183 6.2567 29.2886 7.10692 29.2886C7.90991 29.2886 8.66566 29.183 9.18524 28.9735H13.9538H17.5909H24.4364H28.2159H32.7956C35.9596 28.9735 36.1958 27.7171 36.1958 26.3035C36.1958 24.8361 35.5824 19.8605 35.5824 19.8605L36.7626 17.3993C34.7322 14.3627 34.3071 11.8483 34.1174 11.4809Z" fill="#36A270"/>
<path d="M68.7801 26.0407C67.6937 26.0407 66.8907 24.9406 66.8907 23.9461C66.8907 22.6366 67.8826 21.7469 68.7801 21.7469C69.9602 21.7469 70.7639 22.8469 70.7639 24.0509C70.7167 25.1509 69.8185 26.0407 68.7801 26.0407ZM85.4025 8.49642C83.7493 5.19633 83.2776 3.36448 83.1359 2.99703C82.758 2.99703 79.8774 5.93045 79.8774 5.98283L80.3018 24.5216H78.8862H77.0906H76.1473C75.9576 23.4231 75.627 22.2699 75.1553 21.2746C73.9752 18.9182 71.5183 16.6665 69.0635 16.6665C63.8211 16.8761 61.7907 24.5216 61.7907 24.5216H59.4763H59.0053C58.0134 23.1604 56.6908 20.7516 56.1247 19.023C55.4162 16.9801 53.1968 15.5141 52.0632 15.5141H42.6649C42.2877 15.5141 41.9571 15.6189 41.7682 15.8816C41.6265 16.1959 40.9179 17.3991 40.4456 18.4991C40.3039 18.8666 40.2574 19.1809 40.2574 19.442C40.2574 19.8611 40.3984 20.0706 40.4928 20.0706H50.5052C52.3466 20.0706 53.4803 24.5216 53.4803 24.5216H38.8876C38.8876 24.5216 37.8956 26.8272 37.7067 27.8741C37.6602 28.0836 37.6602 28.24 37.6602 28.3979C37.6602 28.9209 37.8956 28.9741 38.0373 28.9741H59.4763H61.7435C62.3103 28.9741 65.002 30.5456 67.6937 30.5972H69.5358C71.33 30.5972 73.9752 29.9162 75.0609 28.9741H77.0906H78.8862H82.758C83.8437 28.9741 83.8437 27.8741 83.8437 26.9312V26.7224C83.8437 26.5645 83.9861 10.7481 83.9861 10.7481L85.4025 8.49642Z" fill="#36A270"/>
<path d="M92.3919 28.4501V10.8527L93.809 8.60028C92.1558 5.30172 91.8724 3.46834 91.7307 3.15404C91.2118 3.15404 88.7083 5.72001 88.4722 6.08746C88.4722 6.08746 88.5194 8.18122 89.1335 30.6494L92.3919 28.4501Z" fill="#36A270"/>
<path d="M3.56472 3.99177C4.60388 4.62036 5.97368 6.13945 5.97368 6.08707C5.97368 6.19106 5.92575 6.34898 5.78405 6.50613L3.51749 9.54354C3.42302 9.6483 3.37648 9.70068 3.28201 9.70068C3.18754 9.70068 3.09238 9.6483 2.95137 9.49115C2.24215 8.86257 0.873047 7.60539 0.873047 7.55301C0.873047 7.44824 0.919587 7.34425 1.06199 7.13395C1.34539 6.76804 3.23408 4.2013 3.23408 4.2013C3.23408 4.2013 3.37648 3.99177 3.56472 3.99177Z" fill="#36A270"/>
<path d="M9.23228 3.9924C10.129 4.67337 11.5933 6.03454 11.5933 6.14008C11.5933 6.08769 9.51499 9.22987 9.04265 9.64893C9.04265 9.64893 8.712 9.59654 8.61753 9.49178C7.67354 8.81081 6.49268 7.50202 6.49268 7.50202C6.49268 7.39648 6.53991 7.29172 6.68161 7.13457C7.01226 6.76866 8.90164 4.20193 8.90164 4.20193C8.90164 4.20193 9.04265 3.9924 9.23228 3.9924Z" fill="#36A270"/>
<path d="M17.6038 8.11433C18.6429 8.74292 20.012 10.262 20.012 10.2096C20.012 10.3144 19.9648 10.4715 19.8231 10.6287L17.5565 13.6661C17.4621 13.7709 17.4155 13.8232 17.3204 13.8232C17.2259 13.8232 17.1314 13.7709 16.9897 13.6145C16.2812 12.9851 14.9121 11.7279 14.9121 11.6763C14.9121 11.5716 14.9586 11.4668 15.101 11.2573C15.3838 10.8906 17.2731 8.32386 17.2731 8.32386C17.2731 8.32386 17.4155 8.11433 17.6038 8.11433Z" fill="#36A270"/>
<path d="M26.7035 37.6676C26.6091 37.7724 26.5618 37.824 26.4673 37.824C26.3729 37.824 26.2784 37.7724 26.1367 37.6152C25.8533 37.4057 24.1063 35.8342 24.1063 35.8342C24.1063 35.8342 24.0591 35.7818 24.0591 35.6771C24.0591 35.5723 24.0591 35.4152 24.2001 35.258C24.5314 34.8913 26.4201 32.3254 26.4201 32.3254C26.4201 32.3254 26.5618 32.1158 26.8452 32.1158C27.0342 32.273 29.0646 34.0008 29.0646 34.0008C29.0646 34.0008 29.159 34.054 29.159 34.2111C29.159 34.3151 29.1125 34.473 28.9701 34.6302L26.7035 37.6676Z" fill="#36A270"/>
<path d="M31.9926 37.6676C31.8981 37.7724 31.8509 37.824 31.7564 37.824C31.6619 37.824 31.5675 37.7724 31.4258 37.6152C31.1424 37.4057 29.3954 35.8342 29.3954 35.8342C29.3954 35.8342 29.3481 35.7818 29.3481 35.6771C29.3481 35.5723 29.3481 35.4152 29.4892 35.258C29.8205 34.8913 31.7099 32.3254 31.7099 32.3254C31.7099 32.3254 31.8509 32.1158 32.135 32.1158C32.3232 32.273 34.3536 34.0008 34.3536 34.0008C34.3536 34.0008 34.4481 34.054 34.4481 34.2111C34.4481 34.3151 34.4015 34.473 34.2598 34.6302L31.9926 37.6676Z" fill="#36A270"/>
<path d="M83.9651 49.9727H93.735V47.8257H83.9651V49.9727ZM0.459961 49.9727H10.2299V47.8257H0.459961V49.9727Z" fill="#565656"/>
<path d="M19.3912 46.661L18.9994 45.1789C18.8911 44.7667 18.7799 44.2437 18.6834 43.8362H18.6639C18.5709 44.246 18.4771 44.776 18.3757 45.1812L17.9999 46.661H19.3912ZM17.7936 47.835L17.3504 49.626H15.8799L17.7991 42.653H19.6593L21.6168 49.626H20.0851L19.6017 47.835H17.7936Z" fill="#565656"/>
<path d="M23.7588 42.653H25.1807V48.3041H27.682V49.626H23.7588V42.653Z" fill="#565656"/>
<path d="M35.1427 46.9591C35.1136 46.114 35.0851 45.1088 35.0885 44.0865H35.0628C34.8621 44.9793 34.5981 45.97 34.3613 46.7927L33.5916 49.512H32.4865L31.8092 46.8166C31.6064 45.9962 31.3973 45.0055 31.2417 44.0865H31.2223C31.191 45.0348 31.1556 46.111 31.1181 46.9799L31.0007 49.626H29.6851L30.0879 42.653H31.9829L32.5962 44.984C32.7956 45.7836 32.9887 46.6594 33.1297 47.4768H33.1596C33.3318 46.6695 33.5444 45.7497 33.7576 44.9732L34.4259 42.653H36.2854L36.623 49.626H35.2407L35.1427 46.9591Z" fill="#565656"/>
<path d="M42.0497 46.661L41.6579 45.1789C41.5496 44.7667 41.4384 44.2437 41.3419 43.8362H41.3224C41.23 44.246 41.1356 44.776 41.0342 45.1812L40.6591 46.661H42.0497ZM40.4521 47.835L40.0089 49.626H38.5391L40.4576 42.653H42.3178L44.276 49.626H42.7443L42.2602 47.835H40.4521Z" fill="#565656"/>
<path d="M47.8378 48.44C47.9621 48.4654 48.1601 48.4669 48.3331 48.4669C49.6209 48.4793 50.4676 47.6897 50.4676 46.0235C50.4704 44.5737 49.7056 43.8126 48.4838 43.8126C48.1726 43.8126 47.9635 43.8419 47.8378 43.8727V48.44ZM46.418 42.7488C46.941 42.6548 47.6224 42.5993 48.3344 42.5993C49.5278 42.5993 50.3072 42.8428 50.9087 43.3481C51.5624 43.8881 51.9729 44.7385 51.9729 45.9711C51.9729 47.3076 51.5367 48.2312 50.933 48.7959C50.2711 49.4075 49.2583 49.6995 48.0323 49.6995C47.2932 49.6995 46.7667 49.6502 46.418 49.5962V42.7488Z" fill="#565656"/>
<path d="M55.6353 49.626H54.2134V42.653H55.6353V49.626Z" fill="#565656"/>
<path d="M58.1768 49.626V42.653H59.8327L61.1379 45.2112C61.5144 45.9423 61.8819 46.815 62.166 47.6023L62.1896 47.5992C62.1028 46.6779 62.0757 45.7404 62.0757 44.6866V42.653H63.3802V49.626H61.8909L60.5433 46.9414C60.1682 46.1888 59.7556 45.2952 59.4507 44.4771L59.4194 44.4802C59.4639 45.4046 59.4813 46.3914 59.4813 47.5299V49.626H58.1768Z" fill="#565656"/>
<path d="M68.9701 46.661L68.5783 45.1789C68.47 44.7667 68.3588 44.2437 68.2623 43.8362H68.2428C68.1505 44.246 68.056 44.776 67.9546 45.1812L67.5795 46.661H68.9701ZM67.3725 47.835L66.9293 49.626H65.4595L67.378 42.653H69.2382L71.1964 49.626H69.6647L69.1806 47.835H67.3725Z" fill="#565656"/>
<path d="M72.9336 49.5088V42.6444H74.3458V45.2766H76.9173V42.6444H78.3294V49.5088H76.9173V46.741H74.3458V49.5088H72.9336Z" fill="#565656"/>
</svg>
